<?xml version="1.0" standalone="no"?>
<!DOCTYPE svg PUBLIC "-//W3C//DTD SVG 1.1//EN" "http://www.w3.org/Graphics/SVG/1.1/DTD/svg11.dtd" >
<svg xmlns="http://www.w3.org/2000/svg">
<metadata>
<json>
<![CDATA[
{
	"fontFamily": "icomoon",
	"majorVersion": 3,
	"minorVersion": 6,
	"fontURL": "https://www.gptfit.com",
	"description": "Alatech\nFont generated by IcoMoon.",
	"designer": "Mika",
	"version": "Version 3.6",
	"fontId": "icomoon",
	"psName": "icomoon",
	"subFamily": "Regular",
	"fullName": "icomoon"
}
]]>
</json>
</metadata>
<defs>
<font id="icomoon" horiz-adv-x="1024">
<font-face units-per-em="1024" ascent="819.2" descent="-204.8" />
<missing-glyph horiz-adv-x="1024" />
<glyph unicode="&#x20;" horiz-adv-x="512" d="" />
<glyph unicode="&#xe900;" glyph-name="svg_web-icon_p1_001-setting" data-tags="svg_web-icon_p1_001-setting" d="M868.24 371.2c-1.28 8.64-8.48 15.2-17.2 15.6-41.36 1.68-80.8 24.24-102.32 63.12s-19.68 84.48 0.96 120.4c4.4 7.6 2.48 17.28-4.16 22.96-29.040 24.8-62.080 45.040-98 59.6-8.24 3.36-17.76 0.48-22.48-7.12-22-35.36-61.6-58.64-106.24-57.84-45.12 0.8-84.16 25.92-104.72 62.72-4.32 7.76-13.76 11.040-22.16 8.080-36.64-12.96-70.48-31.68-100.64-55.040-7.12-5.52-9.28-15.36-4.96-23.28 20.56-37.040 21.28-83.76-2.16-122.64-23.6-39.2-65.6-60.4-108.24-59.28-8.96 0.24-16.72-6.24-18.32-15.12-3.76-20.8-5.68-42.24-5.68-64.080 0-17.28 1.2-34.24 3.6-50.8 1.28-8.88 8.8-15.52 17.76-15.6 42.8-0.32 84.080-23.12 106.32-63.2 22.080-39.92 19.52-86.72-2.56-123.12-4.72-7.68-2.88-17.68 4.080-23.52 29.28-24.48 62.48-44.4 98.56-58.64 8.32-3.28 17.92-0.24 22.48 7.44 21.76 36.48 61.92 60.56 107.44 59.76 44.96-0.8 83.84-25.76 104.48-62.24 4.4-7.76 13.92-11.040 22.32-8 36.4 13.44 70.080 32.56 99.92 56.32 6.88 5.52 9.12 15.12 4.96 22.96-19.68 36.8-20.080 82.72 2.96 121.12 22.88 38 63.2 59.2 104.56 59.36 8.72 0 16.24 6.4 17.76 15.040 3.6 20.48 5.52 41.6 5.52 63.2 0 17.68-1.28 34.96-3.76 51.92zM512 113.2c-114.24 0-206.88 92.64-206.88 206.88s92.64 206.88 206.88 206.88 206.88-92.64 206.88-206.88-92.64-206.88-206.88-206.88zM606.88 320.080c0-52.401-42.479-94.88-94.88-94.88s-94.88 42.479-94.88 94.88c0 52.401 42.479 94.88 94.88 94.88s94.88-42.479 94.88-94.88z" />
<glyph unicode="&#xe901;" glyph-name="svg_web-icon_p1_002-trophy" data-tags="svg_web-icon_p1_002-trophy" d="M739.84 582.96h-42.64c-6.64 34.64-37.040 60.88-73.68 60.88h-223.12c-36.56 0-67.040-26.16-73.68-60.88h-42.64c-33.2 0-60.16-25.36-60.16-56.48v-94.56c0-56.88 47.68-103.68 108.080-108.16 19.6-70.88 80.72-124.4 155.6-132.96v-50h-51.36c-61.2 0-110.88-49.6-110.88-110.88v-25.68c0-4.48 3.6-8.080 8.080-8.080h356.96c4.48 0 8.080 3.6 8.080 8.080v25.68c0 61.2-49.6 110.88-110.88 110.88h-51.36v50c74.88 8.56 136 62.080 155.6 132.96 60.4 4.56 108.080 51.28 108.080 108.16v94.56c0 31.12-26.96 56.48-60.16 56.48zM264.56 432v94.56c0 8.8 8.8 15.92 19.6 15.92h41.28v-169.68c0-2.48 0.080-4.88 0.16-7.28-34.8 6.56-61.040 33.84-61.040 66.56zM759.44 432c0-32.64-26.24-60-61.040-66.56 0.080 2.4 0.16 4.88 0.16 7.28v169.68h41.28c10.8 0 19.6-7.12 19.6-15.92v-94.56z" />
<glyph unicode="&#xe902;" glyph-name="svg_web-icon_p1_003-peoples" data-tags="svg_web-icon_p1_003-peoples" d="M669.68 231.2c14 29.68 27.52 58.56 37.92 80.8 2.96 6.32 10.24 9.2 16.72 6.72l45.28-17.36c6.72-2.56 14.32-1.44 20 3.040l102.64 80.32c8.4 6.56 10.32 18.48 4.48 27.44l-6.88 10.4c-5.68 8.72-17.040 11.76-26.32 7.040l-82.4-41.2c-6.48-3.2-14.080-2.8-20.16 1.040l-157.040 73.28c-12.8 3.92-26.64 2.080-38-5.040l-112.48-71.040c-9.76-6.16-12.48-19.12-6.080-28.72l10.4-15.52c5.36-8 15.52-11.2 24.48-7.76l81.68 31.84c7.2 2.8 14.4-4 12-11.28-10.56-32.64-33.36-101.84-51.92-146.32-4.24-10.080 0.24-21.68 10.16-26.4l79.040-37.28 90.64-47.84c3.040-1.6 5.6-3.92 7.52-6.8l64.96-97.52c5.76-8.64 16.96-11.6 26.24-6.96l13.52 6.72c9.6 4.8 13.92 16.24 9.76 26.16l-47.84 116c-1.6 3.84-4.24 7.040-7.76 9.36l-93.12 60.88c-8.56 5.6-11.68 16.64-7.36 25.92zM454.080 93.28l-102.32-34.080c-5.76-1.92-9.6-7.28-9.6-13.36v-21.76c0-8.080 6.72-14.48 14.8-14.080l135.36 6.8c3.68 0.16 7.12 1.76 9.6 4.48l84.64 91.12c6.4 6.88 4.4 18-4 22.16l-65.040 32.48c-6.56 3.28-14.56 0.96-18.4-5.36l-37.36-62.24c-1.76-2.88-4.4-5.040-7.6-6.080zM778.48 507.92c0-34.418-27.902-62.32-62.32-62.32s-62.32 27.902-62.32 62.32c0 34.418 27.902 62.32 62.32 62.32s62.32-27.902 62.32-62.32zM412.56 332.48c4.96 23.12 10 47.84 12.88 62.080 1.52 7.68 6.4 14.16 13.28 17.84 23.040 12.4 75.76 40.96 86.96 49.6 7.84 6 6.48 18.16-2.48 22.32l-137.52 64.16c-12.8 3.92-26.64 2.080-38-5.040l-112.48-71.040c-9.76-6.16-12.48-19.12-6.080-28.72l10.4-15.52c5.36-8 15.52-11.2 24.48-7.76l81.68 31.84c7.2 2.8 14.4-3.92 12-11.28-10.48-32.64-33.36-101.84-51.92-146.32-4.24-10.080 0.24-21.68 10.16-26.4l62-28.4s76.8-44.32 90.64-47.84 60.64 51.040 52.8 58.8-101.52 55.84-101.52 55.84c-8.56 5.6-9.44 15.92-7.36 25.92zM235.92 179.040l-102.32-34.080c-5.76-1.92-9.6-7.28-9.6-13.36v-21.76c0-8.080 6.72-14.48 14.8-14.080l135.36 6.8c3.68 0.16 7.12 1.76 9.6 4.48l84.64 91.12c6.4 6.88 4.4 18-4 22.16l-65.040 32.48c-6.56 3.28-14.56 0.96-18.4-5.36l-37.36-62.24c-1.76-2.88-4.4-5.040-7.6-6.080zM560.32 593.68c0-34.418-27.902-62.32-62.32-62.32s-62.32 27.902-62.32 62.32c0 34.418 27.902 62.32 62.32 62.32s62.32-27.902 62.32-62.32z" />
<glyph unicode="&#xe903;" glyph-name="svg_web-icon_p1_004-qr_code" data-tags="svg_web-icon_p1_004-qr_code" d="M270.080 563.2h48.4v-50.88h-48.4v50.88zM366.32 660h-144.24c-27.68 0-50.080-22.4-50.080-50.080v-144.24c0-27.68 22.4-50.080 50.080-50.080h144.24c27.68 0 50.080 22.4 50.080 50.080v144.24c0 27.68-22.4 50.080-50.080 50.080zM315.44 466.4h-42.4c-27.68 0-50.080 22.4-50.080 50.080v42.48c0 27.68 22.4 50.080 50.080 50.080h42.4c27.68 0 50.080-22.4 50.080-50.080v-42.48c0-27.68-22.4-50.080-50.080-50.080zM607.52 609.92v-144.24c0-27.68 22.4-50.080 50.080-50.080h144.32c27.68 0 50.080 22.4 50.080 50.080v144.24c0 27.68-22.4 50.080-50.080 50.080h-144.32c-27.68 0-50.080-22.4-50.080-50.080zM751.040 466.4h-42.48c-27.68 0-50.080 22.4-50.080 50.080v42.48c0 27.68 22.4 50.080 50.080 50.080h42.48c27.68 0 50.080-22.4 50.080-50.080v-42.48c0-27.68-22.4-50.080-50.080-50.080zM705.6 563.2h48.4v-50.88h-48.4v50.88zM270.080 127.68h48.4v-50.88h-48.4v50.88zM222.080-20h144.24c27.68 0 50.080 22.4 50.080 50.080v144.24c0 27.68-22.4 50.080-50.080 50.080h-144.24c-27.68 0-50.080-22.4-50.080-50.080v-144.24c0-27.68 22.4-50.080 50.080-50.080zM272.96 173.6h42.4c27.68 0 50.080-22.4 50.080-50.080v-42.48c0-27.68-22.4-50.080-50.080-50.080h-42.4c-27.68 0-50.080 22.4-50.080 50.080v42.48c0 27.68 22.4 50.080 50.080 50.080zM802.32 321.28h-48.32v-96.8h-145.2v48.4h-48.4v-48.4h-48.4v94.24h48.4v50.88h-47.12v45.92h48.4v147.68h-48.4v45.92h47.12v50.88h-98.080v-147.68h48.4v-45.92h-48.4v-98h49.68v-47.12h-145.12v48.32h-96.8v-48.32h-48.4v48.32h-48.4v-50.88h48.4v-48.32h48.4v48.32h48.4v-48.32h145.2v-48.4h48.4v-45.92h-48.4v-147.68h48.4v-48.4h193.6v96.72h96.72v-45.84h-48.32v-50.88h48.32v48.4h48.48v50.88h-48.48v45.84h48.48v50.88h-48.48v94.4h48.48v99.2h-48.48v-48.32zM560.4 221.92h48.4v-45.92h-48.4v45.92zM512 173.52h48.4v-45.92h-48.4v45.92zM512 30.8v45.84h48.4v48.4h48.4v-48.4h48.48v-45.84h-145.2zM705.6 79.2h-48.4v48.4h-48.48v45.92h96.8v-94.32zM802.32 127.6h-48.32v45.92h48.32v-45.92zM705.6 270.4v99.2h-96.88v-50.88h48.48v-48.32h48.4z" />
<glyph unicode="&#xe904;" glyph-name="svg_web-icon_p1_005-menu" data-tags="svg_web-icon_p1_005-menu" d="M183.040 580.8h657.92c21.561 0 39.040-17.479 39.040-39.040v-1.92c0-21.561-17.479-39.040-39.040-39.040h-657.92c-21.561 0-39.040 17.479-39.040 39.040v1.92c0 21.561 17.479 39.040 39.040 39.040zM183.040 360h657.92c21.561 0 39.040-17.479 39.040-39.040v-1.92c0-21.561-17.479-39.040-39.040-39.040h-657.92c-21.561 0-39.040 17.479-39.040 39.040v1.92c0 21.561 17.479 39.040 39.040 39.040zM183.040 139.2h657.92c21.561 0 39.040-17.479 39.040-39.040v-1.92c0-21.561-17.479-39.040-39.040-39.040h-657.92c-21.561 0-39.040 17.479-39.040 39.040v1.92c0 21.561 17.479 39.040 39.040 39.040z" />
<glyph unicode="&#xe905;" glyph-name="svg_web-icon_p1_006-unfold" data-tags="svg_web-icon_p1_006-unfold" d="M164.24 547.040c9.6 0 19.12-3.76 26.24-11.28l311.68-327.52c3.52-3.68 7.68-4.24 9.84-4.24s6.32 0.56 9.84 4.24l311.68 327.52c13.84 14.48 36.72 15.040 51.2 1.28s15.040-36.72 1.28-51.2l-374-392.88-374 392.88c-13.76 14.48-13.2 37.44 1.28 51.2 7.040 6.64 16 10 24.96 10z" />
<glyph unicode="&#xe906;" glyph-name="svg_web-icon_p1_007-fold" data-tags="svg_web-icon_p1_007-fold" d="M859.76 92.96c-9.6 0-19.12 3.76-26.24 11.28l-311.68 327.52c-3.52 3.68-7.68 4.24-9.84 4.24s-6.32-0.56-9.84-4.24l-311.68-327.52c-13.84-14.48-36.72-15.040-51.2-1.28s-15.040 36.72-1.28 51.2l374 392.88 374-392.88c13.76-14.48 13.2-37.44-1.28-51.2-7.040-6.64-16-10-24.96-10z" />
<glyph unicode="&#xe907;" glyph-name="svg_web-icon_p1_008-edit" data-tags="svg_web-icon_p1_008-edit" d="M791.36 479.36l31.84 31.84c33.040 33.040 33.040 86.88 0 120-16 16-37.28 24.8-60 24.8s-44-8.8-60-24.8l-31.84-31.84 120-120zM643.68 571.68l-235.84-235.84c-5.040-5.040-8.88-11.2-11.040-17.92l-43.76-132.080c-2.32-7.040-0.48-14.8 4.72-20 3.76-3.76 8.72-5.76 13.84-5.76 2.080 0 4.16 0.32 6.16 0.96l132.080 43.76c6.72 2.24 12.96 6.080 18 11.12l235.84 235.84-120 120zM817.44-16h-610.88c-16.88 0-30.56 13.68-30.56 30.56v610.88c0 16.88 13.68 30.56 30.56 30.56h407.12c16.88 0 30.56-13.68 30.56-30.56s-13.68-30.56-30.56-30.56h-376.56v-549.84h549.84v376.64c0 16.88 13.68 30.56 30.56 30.56s30.56-13.68 30.56-30.56v-407.12c0-16.88-13.68-30.56-30.56-30.56z" />
<glyph unicode="&#xe908;" glyph-name="svg_web-icon_p1_009-delete" data-tags="svg_web-icon_p1_009-delete" d="M766.080 506.32l-48-480.24c-1.6-15.84-16.24-28-33.76-28h-344.72c-17.52 0-32.16 12.16-33.76 28l-48 480.24h508.24zM785.28 577.52c-23.68 5.2-74.32 15.36-137.76 22.48v8c0 18.72-15.2 33.92-33.92 33.92h-203.28c-18.72 0-33.92-15.2-33.92-33.92v-8c-63.44-7.12-114.080-17.28-137.76-22.48-8.64-1.92-14.72-9.52-14.72-18.4 0-10.4 8.48-18.88 18.88-18.88h538.24c10.4 0 18.88 8.48 18.88 18.88 0 8.88-6.080 16.48-14.72 18.4z" />
<glyph unicode="&#xe909;" glyph-name="svg_web-icon_p1_010-treadmill" data-tags="svg_web-icon_p1_010-treadmill" d="M786.4 115.36c0-19.794-16.046-35.84-35.84-35.84s-35.84 16.046-35.84 35.84c0 19.794 16.046 35.84 35.84 35.84s35.84-16.046 35.84-35.84zM809.2 446.24c5.92 0 11.36 3.2 14.24 8.32l70.48 126c6.080 10.88-1.76 24.32-14.24 24.32h-21.92c-5.2 0-10.080-2.48-13.2-6.72l-72.080-98.56c-3.040-4.24-8-6.72-13.2-6.72h-236.88c-6.48 0-12.32-3.84-14.96-9.76l-6.16-14c-4.72-10.8 3.2-22.88 14.96-22.88h213.28l-41.28-249.040-511.2-52.88c-28-2.88-49.12-26.32-49.12-54.4 0-30.16 24.56-54.72 54.72-54.72h591.92c44.080 0 80 35.92 80 80 0 25.28-10.8 49.52-29.52 66.48-8.88 8-19.12 14-30.16 17.92v246.72h14.32zM820.48 115.2c0-25.28-20.56-45.92-45.92-45.92h-591.84c-11.36 0-20.64 9.28-20.64 20.64 0 10.56 7.92 19.44 18.48 20.48l578.8 59.84c2 0.24 3.92 0.32 5.92 0.32 13.68 0 26.56-4.96 36.88-14.24 11.76-10.64 18.32-25.28 18.32-41.12z" />
<glyph unicode="&#xe90a;" glyph-name="svg_web-icon_p1_011-gps" data-tags="svg_web-icon_p1_011-gps" d="M512 704c-148.72 0-269.28-120.56-269.28-269.28s249.36-498.72 269.28-498.72 269.28 350 269.28 498.72-120.56 269.28-269.28 269.28zM512 285.12c-82.64 0-149.6 66.96-149.6 149.6s66.96 149.6 149.6 149.6 149.6-66.96 149.6-149.6-66.96-149.6-149.6-149.6z" />
<glyph unicode="&#xe90b;" glyph-name="svg_web-icon_p1_012-close" data-tags="svg_web-icon_p1_012-close" d="M718 524.96v0c-15.6 15.6-40.96 15.6-56.56 0l-121.12-121.12c-15.6-15.6-40.96-15.6-56.56 0l-121.12 121.12c-15.6 15.6-40.96 15.6-56.56 0v0c-15.6-15.6-15.6-40.96 0-56.56l121.12-121.12c15.6-15.6 15.6-40.96 0-56.56l-121.12-121.12c-15.6-15.6-15.6-40.96 0-56.56v0c15.6-15.6 40.96-15.6 56.56 0l121.12 121.12c15.6 15.6 40.96 15.6 56.56 0l121.12-121.12c15.6-15.6 40.96-15.6 56.56 0v0c15.6 15.6 15.6 40.96 0 56.56l-121.12 121.12c-15.6 15.6-15.6 40.96 0 56.56l121.12 121.12c15.6 15.6 15.6 40.96 0 56.56z" />
<glyph unicode="&#xe90c;" glyph-name="svg_web-icon_p1_013-share" data-tags="svg_web-icon_p1_013-share" d="M707.040 201.44c-31.76 1.76-61.040-8.64-83.76-26.96-7.44-6-17.84-6.48-26.080-1.68l-140.32 80.96c-8.32 4.8-12.96 14.24-11.52 23.68 0.88 5.68 1.28 11.52 1.28 17.52 0 5.28-0.4 10.4-1.040 15.44-1.28 9.52 3.76 18.72 12.080 23.52l141.36 81.6c8.080 4.72 18.4 4.32 25.76-1.44 24.64-19.2 56.88-29.2 91.36-24.8 56.4 7.2 101.12 54.080 106.080 110.72 6.48 74.24-53.68 136.48-127.2 133.52-49.92-2-93.2-35.76-110.4-82.72-7.28-19.76-8.56-38.72-6-56.4 1.36-9.44-3.28-18.72-11.52-23.44l-141.040-81.44c-8.16-4.72-18.56-4.32-25.92 1.6-22.72 18-52 28.16-83.68 26.24-61.68-3.76-111.92-54.8-114.88-116.48-3.36-70.32 52.88-128.64 122.56-128.64 27.68 0 53.28 9.28 73.84 24.8 7.52 5.68 17.52 6.72 25.68 2l143.12-82.64c8-4.64 12.88-13.52 11.68-22.72-0.64-4.88-0.96-9.76-0.96-14.8 0-67.6 55.040-122.64 122.64-122.64s125.84 58.24 122.56 128.56c-2.96 62-53.6 113.040-115.52 116.56zM688.56 568.56c41.28 7.92 76.96-27.76 69.040-69.040-4.4-23.040-22.96-41.68-46.080-46.080-41.28-7.92-76.96 27.76-69.040 69.040 4.4 23.040 22.96 41.68 46.080 46.080zM335.6 237.44c-41.28-7.92-76.96 27.76-69.040 69.040 4.4 23.040 22.96 41.68 46.080 46.080 41.28 7.92 76.96-27.76 69.040-69.040-4.4-23.040-22.96-41.68-46.080-46.080zM711.6 21.44c-41.28-7.92-76.96 27.76-69.040 69.040 4.4 23.040 22.96 41.68 46.080 46.080 41.28 7.92 76.96-27.76 69.040-69.040-4.4-23.040-22.96-41.68-46.080-46.080z" />
<glyph unicode="&#xe90d;" glyph-name="svg_web-icon_p1_014-search" data-tags="svg_web-icon_p1_014-search" d="M842.96 17.92l-180.8 167.84c-6.72 6.24-7.76 16.56-2.24 24 37.92 51.44 58.8 116.16 54.16 185.76-9.28 139.6-122.4 252.64-262.080 261.76-169.84 11.12-310.56-129.44-299.68-299.28 9.12-142.56 126.64-257.12 269.36-262.8 57.84-2.32 112 12.88 157.68 40.72 6.8 4.16 15.68 3.12 21.52-2.32l187.76-174.24c16.16-15.040 41.52-14.080 56.56 2.080v0c15.040 16.16 14.080 41.52-2.080 56.56zM200.48 357.36c-11.44 143.68 108.080 263.2 251.76 251.76 113.040-9.040 204.64-100.64 213.68-213.68 11.44-143.68-108.080-263.2-251.76-251.76-113.040 9.040-204.64 100.64-213.68 213.68z" />
<glyph unicode="&#xe90e;" glyph-name="svg_web-icon_p1_015-more" data-tags="svg_web-icon_p1_015-more" d="M598.080 320c0-47.541-38.539-86.080-86.080-86.080s-86.080 38.539-86.080 86.080c0 47.541 38.539 86.080 86.080 86.080s86.080-38.539 86.080-86.080zM336.16 320c0-47.541-38.539-86.080-86.080-86.080s-86.080 38.539-86.080 86.080c0 47.541 38.539 86.080 86.080 86.080s86.080-38.539 86.080-86.080zM860 320c0-47.541-38.539-86.080-86.080-86.080s-86.080 38.539-86.080 86.080c0 47.541 38.539 86.080 86.080 86.080s86.080-38.539 86.080-86.080z" />
<glyph unicode="&#xe90f;" glyph-name="svg_web-icon_p1_016-back" data-tags="svg_web-icon_p1_016-back" d="M739.040 667.76c0-9.6-3.76-19.12-11.28-26.24l-327.52-311.68c-3.68-3.52-4.24-7.68-4.24-9.84s0.56-6.32 4.24-9.84l327.52-311.68c14.48-13.84 15.040-36.72 1.28-51.2s-36.72-15.040-51.2-1.28l-392.88 374 392.88 374c14.48 13.76 37.44 13.2 51.2-1.28 6.64-7.040 10-16 10-24.96z" />
<glyph unicode="&#xe910;" glyph-name="svg_web-icon_p1_017-output" data-tags="svg_web-icon_p1_017-output" d="M799.44-16h-574.88c-17.2 0-31.12 13.92-31.12 31.12v121.92c0 17.2 13.92 31.12 31.12 31.12s31.12-13.92 31.12-31.12v-90.88h512.64v90.88c0 17.2 13.92 31.12 31.12 31.12s31.12-13.92 31.12-31.12v-121.92c0-17.2-13.92-31.12-31.12-31.12zM606 474.88c6.080-6 14-9.040 21.92-9.040s15.040 2.72 20.96 8.16c13.2 12.080 12.4 33.6-0.32 46.24l-136.48 135.76s-136.64-135.92-136.64-135.92c-11.6-11.52-13.6-30.48-3.12-43.040 11.84-14.24 33.040-14.96 45.84-2.16l60 59.68c1.52 1.52 4.080 0.4 4.080-1.68v-213.52c0-16.4 12-31.2 28.32-32.56 18.4-1.6 33.84 12.88 33.84 30.96v212.56c0 2.16 2.56 3.2 4.080 1.68l57.44-57.12zM724.4 426.8c-12.8 12.88-34.16 12.16-46.080-2.16-10.4-12.48-8.56-31.12 2.88-42.64l28.56-28.72c4.16-4.24 1.2-11.36-4.72-11.36h-8.72c-61.28 0-110.88-49.68-110.88-110.88v-104.16c0-16.24 11.84-30.72 28.080-32.32 18.56-1.76 34.16 12.8 34.16 30.96v105.52c0 26.88 21.84 48.72 48.72 48.72h8.72c5.92 0 8.88-7.12 4.72-11.36l-28.4-28.56c-12.48-12.56-13.12-33.68-0.16-45.76 6-5.52 13.6-8.32 21.2-8.32 8 0 16 3.040 22.080 9.2l115.36 115.92-115.36 115.92zM299.6 425.36c12.8 12.88 34.16 12.16 46.080-2.16 10.4-12.48 8.56-31.12-2.88-42.64l-28.56-28.72c-4.16-4.24-1.2-11.36 4.72-11.36h8.72c61.28 0 110.88-49.68 110.88-110.88v-104.16c0-16.24-11.84-30.72-28.080-32.32-18.56-1.76-34.16 12.8-34.16 30.96v105.52c0 26.88-21.84 48.72-48.72 48.72h-8.72c-5.92 0-8.88-7.12-4.72-11.36l28.4-28.56c12.48-12.56 13.12-33.68 0.16-45.76-6-5.52-13.6-8.32-21.2-8.32-8 0-16 3.040-22.080 9.2l-115.36 115.92 115.36 115.92z" />
<glyph unicode="&#xe911;" glyph-name="svg_web-icon_p1_018-input" data-tags="svg_web-icon_p1_018-input" d="M799.44-9.6h-574.88c-17.2 0-31.12 13.92-31.12 31.12v121.92c0 17.2 13.92 31.12 31.12 31.12s31.12-13.92 31.12-31.12v-90.88h512.64v90.88c0 17.2 13.92 31.12 31.12 31.12s31.12-13.92 31.12-31.12v-121.92c0-17.2-13.92-31.12-31.12-31.12zM647.6 463.36c-12.48 10.4-31.12 8.56-42.64-2.88l-54.72-54.48c-3.12-3.12-8.4-0.88-8.4 3.52v207.76c0 16.24-11.84 30.72-28.080 32.32-18.56 1.76-34.16-12.8-34.16-30.96v-206.48c0-4.4-5.28-6.56-8.4-3.52l-52.16 51.92c-11.52 11.44-30.16 13.28-42.64 2.88-14.32-11.92-15.040-33.2-2.16-46.080l137.76-137.040 137.76 137.040c12.88 12.8 12.16 34.16-2.16 46.080zM813.92 346.96h-88.4c-61.28 0-110.88-49.68-110.88-110.88v-33.84c0-4.4-5.28-6.56-8.4-3.52l-29.68 29.52c-11.52 11.44-30.16 13.28-42.64 2.88-14.32-11.92-15.040-33.2-2.16-46.080l115.92-115.36 115.040 114.4c11.52 11.44 13.44 30.080 3.12 42.64-11.84 14.4-33.12 15.2-46 2.4l-34.56-34.4c-3.12-3.12-8.4-0.88-8.4 3.52v37.76c0 26.88 21.84 48.72 48.72 48.72h87.040c16.24 0 30.72 11.84 32.32 28 1.76 18.56-12.8 34.16-30.96 34.16zM210.080 346.96h88.4c61.28 0 110.88-49.68 110.88-110.88v-33.84c0-4.4 5.28-6.56 8.4-3.52l29.68 29.52c11.52 11.44 30.16 13.28 42.64 2.88 14.32-11.92 15.040-33.2 2.16-46.080l-115.92-115.36-115.040 114.4c-11.52 11.44-13.44 30.080-3.12 42.64 11.84 14.4 33.12 15.2 46 2.4l34.56-34.4c3.12-3.12 8.4-0.88 8.4 3.52v37.76c0 26.88-21.84 48.72-48.72 48.72h-87.040c-16.24 0-30.72 11.84-32.32 28-1.76 18.56 12.8 34.16 30.96 34.16z" />
<glyph unicode="&#xe912;" glyph-name="svg_web-icon_p1_019-full_screen" data-tags="svg_web-icon_p1_019-full_screen" d="M314.32 583.84l84.72 0.24c18.8 0 35.52 13.84 37.28 32.48 2 21.44-14.8 39.44-35.84 39.44h-0.080l-224.8-0.56-0.56-224.8c0-19.84 16-36 35.84-36.080h0.080c19.84 0 35.92 16.080 36 35.84l0.24 90.48c0 5.2 6.32 7.84 10 4.16l170.72-170.72c7.040-7.040 16.24-10.56 25.44-10.56 8.72 0 17.44 3.12 24.32 9.44 15.2 14 14.48 38.56-0.16 53.2l-167.36 167.36c-3.68 3.68-1.12 10 4.16 10zM813.2 245.44h-0.080c-19.84 0-35.92-16.080-36-35.84l-0.24-90.48c0-5.2-6.32-7.84-10-4.16l-170.72 170.72c-14 14.080-36.8 14.080-50.88 0s-14.080-36.8 0-50.88l168.64-168.64c3.68-3.68 1.12-10-4.16-10l-84.72-0.24c-18.8 0-35.52-13.84-37.28-32.48-2-21.44 14.8-39.44 35.84-39.44h0.080l224.8 0.56 0.56 224.8c0 19.84-16 36-35.84 36.080z" />
<glyph unicode="&#xe913;" glyph-name="svg_web-icon_p1_020-narrow" data-tags="svg_web-icon_p1_020-narrow" d="M450 604.16c-18.64-1.76-32.32-18.48-32.32-37.2v-87.2c0-5.76-6.96-8.64-11.040-4.56l-169.36 169.36c-14.8 14.8-39.44 13.92-53.12-2.64-11.92-14.48-9.76-36 3.52-49.2l165.92-165.92c4.080-4.080 1.2-11.040-4.56-11.040l-82.96-0.24c-18.72 0-35.36-13.76-37.12-32.4-2-21.36 14.8-39.36 35.68-39.36h0.080l224.72 0.56v224.16c0 20.96-18 37.76-39.36 35.68zM836.24 47.52l-165.76 165.76c-4.080 4.080-1.2 11.040 4.56 11.040l82.96 0.24c18.72 0 35.36 13.76 37.12 32.4 2 21.36-14.8 39.36-35.68 39.36h-0.080l-224.080-0.56-0.56-224.080c0-19.84 16-35.92 35.76-35.92h0.080c19.76 0 35.84 16 35.84 35.76l0.24 88.64c0 5.76 6.96 8.64 11.040 4.56l169.12-169.12c6.96-7.040 16.16-10.48 25.36-10.48 8.72 0 17.44 3.12 24.24 9.44 15.12 13.92 14.4 38.48-0.16 53.040z" />
<glyph unicode="&#xe914;" glyph-name="svg_web-icon_p1_021-add_friend" data-tags="svg_web-icon_p1_021-add_friend" d="M582.96 233.6c14.56 30.96 28.64 61.040 39.52 84.24 3.040 6.56 10.64 9.6 17.36 7.040l47.2-18.080c7.040-2.72 14.88-1.52 20.8 3.12l106.88 83.68c8.72 6.88 10.8 19.28 4.64 28.56l-7.12 10.88c-5.92 9.040-17.76 12.24-27.44 7.36l-85.84-42.96c-6.72-3.36-14.72-2.96-21.040 1.12l-163.68 76.32c-13.36 4.080-27.76 2.16-39.6-5.28l-117.2-74c-10.16-6.4-13.040-19.92-6.4-29.92l10.8-16.16c5.6-8.32 16.16-11.68 25.52-8.080l85.12 33.12c7.44 2.88 14.96-4.16 12.56-11.76-10.96-34-34.72-106.080-54.080-152.48-4.4-10.56 0.24-22.64 10.56-27.52l82.32-38.88 94.48-49.84c3.12-1.68 5.84-4.080 7.84-7.040l67.68-101.6c6-8.96 17.68-12.080 27.36-7.28l14.080 7.040c10 5.040 14.48 16.88 10.16 27.28l-49.84 120.88c-1.68 4-4.48 7.36-8.080 9.76l-97.040 63.44c-8.88 5.84-12.16 17.36-7.6 26.96zM358.32 89.92l-106.64-35.52c-6-2-10-7.6-10-13.92v-22.72c0-8.4 7.040-15.040 15.44-14.64l141.040 7.040c3.84 0.16 7.44 1.84 10 4.64l88.16 94.96c6.64 7.2 4.56 18.72-4.16 23.12l-67.76 33.84c-6.88 3.44-15.2 0.96-19.12-5.6l-38.96-64.88c-1.84-3.040-4.64-5.28-7.92-6.4zM696.32 521.92c0-35.876-29.084-64.96-64.96-64.96s-64.96 29.084-64.96 64.96c0 35.876 29.084 64.96 64.96 64.96s64.96-29.084 64.96-64.96zM428.4 562.48h-77.12v77.12c0 13.44-10.88 24.32-24.32 24.32s-24.32-10.88-24.32-24.32v-77.12h-77.12c-13.44 0-24.32-10.88-24.32-24.32s10.88-24.32 24.32-24.32h77.12v-77.12c0-13.44 10.88-24.32 24.32-24.32s24.32 10.88 24.32 24.32v77.12h77.12c13.44 0 24.32 10.88 24.32 24.32s-10.88 24.32-24.32 24.32z" />
<glyph unicode="&#xe915;" glyph-name="svg_web-icon_p1_022-descending" data-tags="svg_web-icon_p1_022-descending" d="M435.12 610.56h411.76c27.12 0 49.12-22 49.12-49.12v-43.36c0-27.12-22-49.12-49.12-49.12h-411.84c-27.12 0-49.12 22-49.12 49.12v43.36c0 27.12 22 49.12 49.12 49.12zM435.12 390.8h239.36c27.128 0 49.12-21.992 49.12-49.12v-43.36c0-27.128-21.992-49.12-49.12-49.12h-239.36c-27.128 0-49.12 21.992-49.12 49.12v43.36c0 27.128 21.992 49.12 49.12 49.12zM435.12 171.040h98.24c27.12 0 49.12-22 49.12-49.12v-43.44c0-27.12-22-49.12-49.12-49.12h-98.32c-27.12 0-49.12 22-49.12 49.12v43.36c0 27.12 22 49.12 49.12 49.12zM220.96 252.8h-66.32c-9.92 0-14.88-11.92-8-19.040l192.56-196.16v561.040c0 6.16-5.040 11.2-11.2 11.2h-84.72c-6.16 0-11.2-5.040-11.2-11.2v-334.64c0-6.16-5.040-11.2-11.2-11.2z" />
<glyph unicode="&#xe916;" glyph-name="svg_web-icon_p1_023-ascending" data-tags="svg_web-icon_p1_023-ascending" d="M427.36 171.040h411.76c27.12 0 49.12-22 49.12-49.12v-43.36c0-27.12-22-49.12-49.12-49.12h-411.84c-27.12 0-49.12 22-49.12 49.12v43.36c0 27.12 22 49.12 49.12 49.12zM427.36 389.040h239.36c27.128 0 49.12-21.992 49.12-49.12v-43.36c0-27.128-21.992-49.12-49.12-49.12h-239.36c-27.128 0-49.12 21.992-49.12 49.12v43.36c0 27.128 21.992 49.12 49.12 49.12zM427.36 607.040h98.24c27.12 0 49.12-22 49.12-49.12v-43.44c0-27.12-22-49.12-49.12-49.12h-98.32c-27.12 0-49.12 22-49.12 49.12v43.36c0 27.12 22 49.12 49.12 49.12zM213.2 248.8h-66.32c-9.92 0-14.88-11.92-8-19.040l192.56-196.16v561.040c0 6.16-5.040 11.2-11.2 11.2h-84.72c-6.16 0-11.2-5.040-11.2-11.2v-334.64c0-6.16-5.040-11.2-11.2-11.2z" />
<glyph unicode="&#xe917;" glyph-name="svg_web-icon_p1_024-heart_rate" data-tags="svg_web-icon_p1_024-heart_rate" d="M677.52 624.8c-121.92 0-165.52-87.12-165.52-87.12s-43.52 87.12-165.52 87.12-197.92-91.52-174.16-225.84c22.72-128.64 313.52-383.84 339.68-383.84s316.96 255.2 339.68 383.84c23.68 134.32-52.24 225.84-174.16 225.84z" />
<glyph unicode="&#xe918;" glyph-name="svg_web-icon_p1_025-speed" data-tags="svg_web-icon_p1_025-speed" d="M512 637.28c-198.8 0-360-161.2-360-360 0-110 49.44-208.48 127.2-274.48h465.6c77.76 66 127.2 164.48 127.2 274.48 0 198.8-161.2 360-360 360zM379.84 92.24c-4.4-5.52-10.96-8.48-17.6-8.48-4.96 0-9.92 1.6-14 4.96-62.72 50.16-98.72 124.88-98.72 205.040 0 144.72 117.76 262.48 262.48 262.48 40.080 0 78.56-8.8 114.32-26.16 11.2-5.44 15.84-18.88 10.48-30.080-5.44-11.2-18.88-15.84-30.080-10.4-29.6 14.32-61.52 21.6-94.72 21.6-119.92 0-217.52-97.6-217.52-217.52 0-66.4 29.84-128.32 81.84-169.92 9.68-7.76 11.28-21.92 3.52-31.6zM512 236.8c-24.88 0-44.96 20.16-44.96 44.96s20.16 44.96 44.96 44.96c4 0 7.84-0.72 11.52-1.68l143.6 143.6c8.8 8.8 23.040 8.8 31.84 0s8.8-23.040 0-31.84l-143.6-143.6c0.96-3.68 1.68-7.52 1.68-11.52 0-24.88-20.16-44.96-44.96-44.96zM675.76 88.72c-4.16-3.28-9.12-4.96-14-4.96-6.64 0-13.12 2.88-17.6 8.48-7.76 9.68-6.16 23.84 3.52 31.6 52 41.6 81.84 103.52 81.84 169.92 0 26.8-4.8 52.96-14.32 77.76-4.4 11.6 1.36 24.64 12.96 29.040s24.64-1.36 29.040-12.96c11.44-30 17.28-61.52 17.28-93.84 0-80.16-36-154.88-98.72-205.040z" />
<glyph unicode="&#xe919;" glyph-name="svg_web-icon_p1_026-time" data-tags="svg_web-icon_p1_026-time" d="M741.76 479.84l38.32 38.32c8.4 8.4 8.4 21.92 0 30.32s-21.92 8.4-30.32 0l-38.32-38.32c-48.4 42-110.16 69.040-178 73.76v37.28h26.48c11.84 0 21.44 9.6 21.44 21.44s-9.6 21.44-21.44 21.44h-95.84c-11.84 0-21.44-9.6-21.44-21.44s9.6-21.44 21.44-21.44h26.48v-37.28c-158.080-11.040-282.88-142.64-282.88-303.52s136.24-304.32 304.32-304.32 304.32 136.24 304.32 304.32c0 76.32-28.16 146-74.56 199.44zM642.88 380.96l-72.88-72.88c4-8.4 6.32-17.76 6.32-27.68 0-35.52-28.8-64.32-64.32-64.32s-64.32 28.8-64.32 64.32 28.8 64.32 64.32 64.32c9.92 0 19.28-2.32 27.68-6.32l72.88 72.88c8.4 8.4 21.92 8.4 30.32 0s8.4-21.92 0-30.32z" />
<glyph unicode="&#xe91a;" glyph-name="svg_web-icon_p1_027-announcement" data-tags="svg_web-icon_p1_027-announcement" d="M268.96 512.32c-44.72 0-80.96-36.24-80.96-80.96v-134c0-44.72 36.24-80.96 80.96-80.96h7.040v-132c0-33.12 26.88-60 60-60s60 26.88 60 60v428h-127.040zM836 352.32c0 32.080-15.84 60.4-40 77.84v120.8c0 44-43.040 75.12-84.88 61.36l-275.12-90.72v-314.64l275.12-90.72c41.76-13.76 84.88 17.36 84.88 61.36v96.8c24.16 17.44 40 45.76 40 77.84z" />
<glyph unicode="&#xe91b;" glyph-name="svg_web-icon_p1_028-email" data-tags="svg_web-icon_p1_028-email" d="M544.16 369.12l318.48 238.88h-701.28l318.48-238.88c19.040-14.32 45.28-14.32 64.32 0zM512 295.040l-331.52 248.64c-21.6 16.24-52.48 0.8-52.48-26.24v-394.4c0-50.24 40.72-91.040 91.040-91.040h586c50.24 0 91.040 40.72 91.040 91.040v394.4c0 27.040-30.88 42.48-52.48 26.24l-331.52-248.64z" />
<glyph unicode="&#xe91c;" glyph-name="svg_web-icon_p1_029-add" data-tags="svg_web-icon_p1_029-add" d="M808 360h-256v256c0 22-18 40-40 40s-40-18-40-40v-256h-256c-22 0-40-18-40-40s18-40 40-40h256v-256c0-22 18-40 40-40s40 18 40 40v256h256c22 0 40 18 40 40s-18 40-40 40z" />
<glyph unicode="&#xe91d;" glyph-name="svg_web-icon_p1_030-less" data-tags="svg_web-icon_p1_030-less" d="M848 320c0-22.091-17.909-40-40-40h-592c-22.091 0-40 17.909-40 40s17.909 40 40 40h592c22.091 0 40-17.909 40-40z" />
<glyph unicode="&#xe91e;" glyph-name="svg_web-icon_p1_031-sync" data-tags="svg_web-icon_p1_031-sync" d="M552.4 605.44l8.96 9.040c10.8 10.88 12.4 28.8 2.080 40.16-10.96 12.16-29.76 12.48-41.2 0.96l-81.28-81.68 81.28-81.68c5.52-5.6 12.8-8.4 20.080-8.4 6.72 0 13.44 2.4 18.8 7.12 12.32 10.96 11.84 30.64 0.24 42.32l-5.84 5.84c107.84-21.28 189.44-116.56 189.44-230.56 0-76.080-37.040-147.68-99.2-191.84-13.84-9.84-19.2-28.48-10.88-43.28 6.080-10.8 17.12-16.56 28.32-16.56 6.4 0 12.88 1.92 18.56 5.84 80.16 56.16 128 148 128 245.76 0 150.96-112.16 276.16-257.44 296.8zM471.6 34.56l-8.96-9.040c-10.8-10.88-12.4-28.8-2.080-40.16 10.96-12.16 29.76-12.48 41.2-0.96l81.28 81.68-81.28 81.68c-5.52 5.6-12.8 8.4-20.080 8.4-6.72 0-13.44-2.4-18.8-7.12-12.32-10.96-11.84-30.64-0.24-42.32l5.84-5.84c-107.84 21.28-189.44 116.56-189.44 230.56 0 76.080 37.040 147.68 99.2 191.84 13.84 9.84 19.2 28.48 10.88 43.28-6.080 10.8-17.12 16.56-28.32 16.56-6.4 0-12.88-1.92-18.56-5.84-80.16-56.16-128-148-128-245.76 0-150.96 112.16-276.16 257.44-296.8z" />
<glyph unicode="&#xe91f;" glyph-name="svg_web-icon_p1_032-screen" data-tags="svg_web-icon_p1_032-screen" d="M431.76 113.76l-22.8-69.52c-2.64-8.080 2.96-17.12 11.52-17.2 0 0 0.16 0 0.24 0h182.72s0.16 0 0.24 0c8.56 0.080 14.16 9.12 11.52 17.2l-22.8 69.52c-1.76 5.44-6.88 9.12-12.64 9.12h-135.28c-5.76 0-10.88-3.68-12.64-9.12zM324 560h376c64.065 0 116-51.935 116-116v-184c0-64.065-51.935-116-116-116h-376c-64.065 0-116 51.935-116 116v184c0 64.065 51.935 116 116 116z" />
<glyph unicode="&#xe920;" glyph-name="svg_web-icon_p1_033-broadcast" data-tags="svg_web-icon_p1_033-broadcast" d="M598.48 320c0-47.762-38.718-86.48-86.48-86.48s-86.48 38.718-86.48 86.48c0 47.762 38.718 86.48 86.48 86.48s86.48-38.718 86.48-86.48zM845.12 320c0-70.64-29.36-134.48-76.48-180.080-10.8-10.48-9.76-28.16 1.92-37.68v0c10-8.16 24.56-7.6 33.84 1.44 56.48 54.88 91.68 131.52 91.68 216.32s-35.2 161.44-91.68 216.32c-9.28 9.040-23.84 9.6-33.84 1.44v0c-11.68-9.52-12.72-27.2-1.92-37.68 47.12-45.6 76.48-109.52 76.48-180.080zM710.32 320c0-37.12-17.52-70.16-44.64-91.44-13.040-10.16-13.6-29.6-0.8-40v0c9.040-7.44 22.16-7.84 31.36-0.64 39.52 30.56 65.040 78.4 65.040 132.080s-25.52 101.52-65.040 132.080c-9.28 7.12-22.32 6.72-31.36-0.64v0c-12.8-10.48-12.16-29.84 0.8-40 27.2-21.28 44.64-54.32 44.64-91.44zM178.88 320c0 70.64 29.36 134.56 76.56 180.16 10.8 10.48 9.76 28.080-1.92 37.6v0c-10 8.24-24.56 7.6-33.84-1.36-56.48-54.88-91.68-131.6-91.68-216.32s35.2-161.52 91.68-216.32c9.28-8.96 23.84-9.6 33.84-1.44v0c11.6 9.52 12.72 27.2 1.92 37.68-47.2 45.6-76.56 109.52-76.56 180.16zM313.68 320c0 37.12 17.52 70.16 44.64 91.44 13.040 10.16 13.6 29.6 0.8 40v0c-9.040 7.44-22.16 7.84-31.36 0.64-39.52-30.56-65.040-78.4-65.040-132.080s25.52-101.52 65.040-132.080c9.28-7.12 22.32-6.72 31.36 0.64v0c12.8 10.48 12.16 29.84-0.8 40-27.2 21.28-44.64 54.32-44.64 91.44z" />
<glyph unicode="&#xe921;" glyph-name="svg_web-icon_p1_034-home" data-tags="svg_web-icon_p1_034-home" d="M805.44 447.6l-62.64 47.040v85.84c0 10.4-8.48 18.88-18.88 18.88h-22.080c-10.4 0-18.88-8.48-18.88-18.88v-40.96l-142.88 107.2c-16.64 12.48-39.44 12.48-56.080 0l-265.36-199.040c-8.96-6.72-14.24-17.28-14.24-28.48v-399.52c0-19.68 15.92-35.6 35.6-35.6h159.52c19.68 0 35.6 15.92 35.6 35.6v168.080c0 19.68 15.92 35.6 35.6 35.6h82.64c19.68 0 35.6-15.92 35.6-35.6v-168.080c0-19.68 15.92-35.6 35.6-35.6h159.52c19.68 0 35.6 15.92 35.6 35.6v399.52c0 11.2-5.28 21.76-14.24 28.48z" />
<glyph unicode="&#xe922;" glyph-name="svg_web-icon_p1_035-chat" data-tags="svg_web-icon_p1_035-chat" d="M468.8 652.48c-154.24 0-279.28-125.040-279.28-279.28 0-45.44 10.96-88.32 30.24-126.32l-42-129.28c-8.48-26.080 16.16-50.72 42.24-42.24l133.68 43.44c35.12-15.92 74.080-24.88 115.2-24.88 154.24 0 279.28 125.040 279.28 279.28s-125.040 279.28-279.28 279.28zM540.8 284h-200.48c-15.84 0-28.64 12.8-28.64 28.64s12.8 28.64 28.64 28.64h200.48c15.84 0 28.64-12.8 28.64-28.64s-12.8-28.64-28.64-28.64zM626.72 384.24h-286.48c-15.84 0-28.64 12.8-28.64 28.64s12.8 28.64 28.64 28.64h286.48c15.84 0 28.64-12.8 28.64-28.64s-12.8-28.64-28.64-28.64zM846.32 31.44l-42 129.28c19.28 37.92 30.24 80.8 30.24 126.32 0 41.36-9.040 80.64-25.2 116-3.28 7.28-14.080 4.4-13.6-3.52 1.2-20.48 0.56-41.52-2.48-63.040-23.2-166.16-162.96-288.48-330.72-286.96-9.76 0.080-19.52 0.64-29.040 1.52-7.92 0.8-10.96-9.84-3.92-13.44 37.76-19.12 80.48-29.84 125.68-29.84 41.12 0 80.080 8.96 115.2 24.88l133.68-43.44c26.080-8.48 50.72 16.16 42.24 42.24z" />
<glyph unicode="&#xe923;" glyph-name="svg_web-icon_p1_036-friends" data-tags="svg_web-icon_p1_036-friends" d="M313.44 27.6c-19.28 0-34.88 15.6-34.88 34.88h490.88c16.88 0 30.56 13.68 30.56 30.56v459.28c0 66.88-54.24 121.12-121.12 121.12h-333.84c-66.88 0-121.12-54.24-121.12-121.12v-464.72c0-66.88 54.24-121.12 121.12-121.12h424.4c16.88 0 30.56 13.68 30.56 30.56v0c0 16.88-13.68 30.56-30.56 30.56h-456zM500 532.64c43.040 8.16 80.080-28.88 71.92-71.92-4.56-24.080-23.92-43.44-48-48-43.040-8.16-80.080 28.88-71.92 71.92 4.56 24.080 23.92 43.44 48 48zM398.48 313.76c0 15.44 12.56 28 28 28h170.88c15.44 0 28-12.56 28-28v-52.4c0-32.72-26.56-59.28-59.28-59.28h-108.4c-32.72 0-59.28 26.56-59.28 59.28v52.4z" />
<glyph unicode="&#xe924;" glyph-name="svg_web-icon_p1_037-chart" data-tags="svg_web-icon_p1_037-chart" d="M319.52 449.36v0c35.92 0 65.12-29.2 65.12-65.12v-180.24c0-35.92-29.2-65.12-65.12-65.12v0c-35.92 0-65.12 29.2-65.12 65.12v180.24c0 35.92 29.2 65.12 65.12 65.12zM521.36 319.6v0c35.92 0 65.12-29.2 65.12-65.12v-50.48c0-35.92-29.2-65.12-65.12-65.12v0c-35.92 0-65.12 29.2-65.12 65.12v50.48c0 35.92 29.2 65.12 65.12 65.12zM723.2 608v0c35.92 0 65.12-29.2 65.12-65.12v-338.88c0-35.92-29.2-65.12-65.12-65.12v0c-35.92 0-65.12 29.2-65.12 65.12v338.88c0 35.92 29.2 65.12 65.12 65.12zM857.84 91.44h-659.68c-16.4 0-29.76-7.92-29.76-17.76v0c0-9.76 13.28-17.76 29.76-17.76h659.68c16.4 0 29.68 7.92 29.68 17.76v0c0 9.76-13.28 17.76-29.76 17.76z" />
<glyph unicode="&#xe925;" glyph-name="svg_web-icon_p1_038-cloud" data-tags="svg_web-icon_p1_038-cloud" d="M754.72 352.64h-29.040c0 1.2 0.080 2.4 0.080 3.6 0 118.080-95.68 213.76-213.76 213.76s-213.76-95.68-213.76-213.76c0-1.2 0-2.4 0.080-3.6h-29.040c-78 0-141.28-63.28-141.28-141.28s63.28-141.28 141.28-141.28h485.44c78 0 141.28 63.28 141.28 141.28s-63.28 141.28-141.28 141.28z" />
<glyph unicode="&#xe926;" glyph-name="svg_web-icon_p1_039-phone" data-tags="svg_web-icon_p1_039-phone" d="M652.24 704h-280.48c-34.56 0-62.56-28-62.56-62.56v-642.88c0-34.56 28-62.56 62.56-62.56h280.48c34.56 0 62.56 28 62.56 62.56v642.88c0 34.56-28 62.56-62.56 62.56zM534.72 12.4c-35.36-23.68-73.52 14.48-49.84 49.84 1.2 1.76 2.72 3.28 4.48 4.48 35.36 23.68 73.52-14.48 49.84-49.84-1.2-1.76-2.72-3.28-4.48-4.48z" />
<glyph unicode="&#xe927;" glyph-name="svg_web-icon_p1_040-book" data-tags="svg_web-icon_p1_040-book" d="M800 93.12v459.28c0 66.88-54.24 121.12-121.12 121.12h-333.84c-66.88 0-121.12-54.24-121.12-121.12v-464.72c0-66.88 54.24-121.12 121.12-121.12h424.4c16.88 0 30.56 13.68 30.56 30.56s-13.68 30.56-30.56 30.56h-456c-19.28 0-34.88 15.6-34.88 34.88h490.88c16.88 0 30.56 13.68 30.56 30.56zM680 512h-336c-13.2 0-24 10.8-24 24s10.8 24 24 24h336c13.2 0 24-10.8 24-24s-10.8-24-24-24z" />
<glyph unicode="&#xe928;" glyph-name="svg_web-icon_p1_041-file_gpx" data-tags="svg_web-icon_p1_041-file_gpx" d="M588.8 434.72h181.28l-204.88 204.88v-181.28c0-13.040 10.56-23.6 23.6-23.6zM540.88 237.92c-4.8 3.76-11.12 5.68-18.72 5.68h-31.36v-41.36h31.36c7.68 0 13.92 1.92 18.72 5.68s7.28 8.8 7.28 15.040-2.4 11.28-7.28 15.040zM593.44 385.6c-42.72 0-77.36 34.64-77.36 77.36v193.12h-168c-56.56 0-102.4-45.84-102.4-102.4v-467.12c0-56.56 45.84-102.4 102.4-102.4h327.84c56.56 0 102.4 45.84 102.4 102.4v299.12h-184.88zM335.6 175.76c4.16-7.36 9.84-13.12 16.8-17.36 7.040-4.24 14.64-6.4 22.88-6.4 4.8 0 9.76 0.8 14.72 2.48 4.96 1.6 9.52 3.84 13.6 6.72v22.56h-33.84v24.48h64.56v-60.32c-7.28-7.68-16.16-13.68-26.64-18s-21.28-6.48-32.4-6.48c-14.080 0-27.12 3.44-39.12 10.24s-21.52 16.080-28.64 27.68c-7.12 11.68-10.64 24.32-10.64 37.92s3.52 26.080 10.64 37.68 16.64 20.88 28.64 27.68 25.040 10.24 39.12 10.24c11.12 0 21.84-2.16 32.4-6.48 10.48-4.32 19.36-10.32 26.64-18l-22.8-20.48c-4.24 4.96-9.68 8.96-16.32 11.92s-13.28 4.48-19.92 4.48c-8.24 0-15.84-2.16-22.88-6.4s-12.64-10-16.8-17.28c-4.16-7.28-6.32-15.040-6.32-23.44s2.080-16.24 6.32-23.52zM573.36 197.36c-4.8-7.52-11.36-13.36-19.68-17.6-8.4-4.16-17.84-6.32-28.32-6.32h-34.48v-47.52h-31.28v146.4h65.84c10.48 0 19.92-2.080 28.32-6.32 8.4-4.16 14.96-10.080 19.68-17.6s7.12-16.080 7.12-25.6-2.4-18-7.12-25.6zM727.12 126h-37.28l-34.96 47.92-35.36-47.92h-36.4l53.52 72.88-53.52 73.52h37.040l35.12-47.92 35.12 47.92h36.64l-53.68-72.88 53.68-73.52z" />
<glyph unicode="&#xe929;" glyph-name="svg_web-icon_p1_042-calories" data-tags="svg_web-icon_p1_042-calories" d="M571.52 293.44h48.96l-24.48 60.080-24.48-60.080zM766 608h-508c-71.52 0-130-58.48-130-130v-316c0-71.52 58.48-130 130-130h508c71.52 0 130 58.48 130 130v316c0 71.52-58.48 130-130 130zM307.28 237.52l-50.64 68.16-20.64-22.080v-46.080h-35.28v164.88h35.28v-75.6l66.72 75.6h42.96l-64.32-71.52 68.88-93.36h-42.96zM392.24 293.68c4.64-8.16 10.96-14.64 18.88-19.52s16.32-7.36 25.28-7.36c7.36 0 14.32 1.68 20.96 4.96s12.48 7.76 17.44 13.6l25.44-23.040c-8.16-8.64-17.84-15.36-28.88-20.24-11.12-4.88-22.8-7.36-34.96-7.36-15.52 0-30 3.84-43.44 11.68-13.44 7.76-24.16 18.16-32.16 31.28s-12 27.28-12 42.48 4 29.36 12 42.4c8 13.040 18.72 23.44 32.16 31.2s27.92 11.68 43.44 11.68c12.32 0 24-2.48 35.040-7.36s20.64-11.68 28.8-20.32l-25.68-23.040c-4.8 5.76-10.48 10.24-17.2 13.52-6.64 3.28-13.68 4.96-20.96 4.96-8.96 0-17.36-2.48-25.28-7.36s-14.24-11.44-18.88-19.6-6.96-16.88-6.96-26.16 2.32-18.24 6.96-26.4zM643.28 237.52l-11.52 28.32h-71.52l-11.52-28.32h-39.6l66.96 164.88h39.84l66.96-164.88h-39.6zM823.28 237.52h-117.36v164.88h35.28v-132.96h82.080v-31.92z" />
<glyph unicode="&#xe92a;" glyph-name="svg_web-icon_p1_043-check" data-tags="svg_web-icon_p1_043-check" d="M809.6 522.48l-299.52-392.16c-6.72-8.8-17.12-14.16-28.24-14.4-0.32 0-0.64 0-0.88 0-10.8 0-21.040 4.72-28 13.040l-145.12 171.6c-11.76 13.84-13.36 34.64-1.68 48.64 15.040 18 41.92 17.52 56.4 0.4l115.92-137.040c0.56-0.72 1.68-0.64 2.16 0l280.48 367.28c-64.64 62-152.4 100.16-249.040 100.16-198.8 0-360-161.2-360-360s161.2-360 360-360 360 161.2 360 360c0 75.12-23.040 144.8-62.4 202.48z" />
<glyph unicode="&#xe92b;" glyph-name="svg_web-icon_p1_044-uncheck" data-tags="svg_web-icon_p1_044-uncheck" d="M512 594.32c151.28 0 274.32-123.040 274.32-274.32s-123.040-274.32-274.32-274.32-274.32 123.040-274.32 274.32 123.040 274.32 274.32 274.32zM512 680c-198.8 0-360-161.2-360-360s161.2-360 360-360 360 161.2 360 360-161.2 360-360 360v0z" />
<glyph unicode="&#xe92c;" glyph-name="svg_web-icon_p1_045-earth" data-tags="svg_web-icon_p1_045-earth" d="M622.56 460c-18.24 129.28-60.88 220-110.56 220s-92.4-90.72-110.56-220h221.2zM632 320c0 34.72-1.68 68.24-4.72 100h-230.56c-3.040-31.76-4.72-65.28-4.72-100s1.68-68.24 4.72-100h230.56c3.040 31.76 4.72 65.28 4.72 100zM401.44 180c18.24-129.28 60.88-220 110.56-220s92.4 90.72 110.56 220h-221.2zM857.84 220c9.2 31.76 14.16 65.28 14.16 100s-5.040 68.24-14.16 100h-190.4c3.040-33.040 4.56-66.72 4.56-100s-1.52-66.96-4.56-100h190.4zM662.96 460h180.8c-44.16 104.56-136.4 183.84-249.040 210.32 34.32-47.68 56.8-124.88 68.24-210.32zM662.96 180c-11.44-85.52-33.84-162.64-68.24-210.32 112.56 26.48 204.8 105.76 249.040 210.32h-180.8zM361.040 460c11.44 85.52 33.84 162.64 68.24 210.32-112.56-26.48-204.8-105.76-249.040-210.32h180.8zM361.040 180h-180.8c44.16-104.56 136.4-183.84 249.040-210.32-34.32 47.68-56.8 124.88-68.24 210.32zM166.16 420c-9.2-31.76-14.16-65.28-14.16-100s5.040-68.24 14.16-100h190.4c-3.040 33.040-4.56 66.72-4.56 100s1.52 66.96 4.56 100h-190.4z" />
<glyph unicode="&#xe92d;" glyph-name="svg_web-icon_p1_046-watch" data-tags="svg_web-icon_p1_046-watch" d="M748.24 379.36h-5.84v122.16c0 66.080-48.4 120.8-111.68 130.88v34.96c0 20.24-16.4 36.64-36.64 36.64h-206c-20.24 0-36.64-16.4-36.64-36.64v-34.96c-63.28-10.080-111.68-64.72-111.68-130.88v-363.040c0-66.080 48.4-120.8 111.68-130.88v-34.96c0-20.24 16.4-36.64 36.64-36.64h206c20.24 0 36.64 16.4 36.64 36.64v34.96c63.28 10.080 111.68 64.72 111.68 130.88v122.16h5.84c19.84 0 36.080 16.24 36.080 36.080v46.56c0 19.84-16.24 36.080-36.080 36.080zM663.6 286.24c0-13.6-11.040-24.64-24.64-24.64h-78.32l-33.12-77.36c-9.12-21.36-40.080-19.28-46.32 3.12l-48.72 175.44-21.68-72.8c-3.12-10.4-12.72-17.6-23.6-17.6h-43.92c-13.6 0-24.64 11.040-24.64 24.64v4.72c0 13.6 11.040 24.64 24.64 24.64h29.28l37.52 118.72c7.44 23.44 40.8 22.72 47.2-0.96l52.72-194.56 16 49.12c3.28 10.16 12.72 16.96 23.36 16.96h89.68c13.6 0 24.64-11.040 24.64-24.64v-4.72z" />
<glyph unicode="&#xe92e;" glyph-name="svg_web-icon_p1_047-comparing" data-tags="svg_web-icon_p1_047-comparing" d="M437.52 512.8h123.84l-140 140v-123.84c0-8.88 7.2-16.080 16.080-16.080zM440.64 479.2c-29.2 0-52.88 23.68-52.88 52.88v131.92h-132.24c-29.040 0-52.56-23.52-52.56-52.56v-218.88h105.12v26.72c0 14.8 16.080 24.080 28.88 16.64l103.84-60c12.8-7.44 12.8-25.92 0-33.36l-103.84-60c-12.8-7.44-28.88 1.84-28.88 16.64v26.72h-105.12v-68.64c0-29.040 23.52-52.56 52.56-52.56h254.4c31.44 0 56.96 25.52 56.96 56.96v217.36h-126.32zM694.56 82.4v-26.72c0-14.8-16.080-24.080-28.88-16.64l-103.84 60c-12.8 7.44-12.8 25.92 0 33.36l103.84 60c12.8 7.44 28.88-1.84 28.88-16.64v-26.72h126.4v167.28c0 41.2-33.44 74.64-74.64 74.64h-133.28c-6.64 0-12.080-5.44-12.080-12.080v-132.88c0-41.44-33.6-75.040-75.040-75.040h-126.24c-6.64 0-12.080-5.44-12.080-12.080v-87.28c0-52.72 42.72-95.44 95.44-95.44h263.28c41.2 0 74.64 33.44 74.64 74.64v31.76h-126.4z" />
<glyph unicode="&#xe92f;" glyph-name="svg_web-icon_p1_048-service" data-tags="svg_web-icon_p1_048-service" d="M808 517.6l-89.92-89.92c-18.72-18.72-49.040-18.72-67.76 0l-30.64 30.64c-18.72 18.72-18.72 49.040 0 67.76l89.92 89.92c11.52 11.52 7.2 31.44-8.24 36.56-78.48 26-168.48 7.84-230.96-54.64-65.52-65.52-82.32-161.36-50.48-242.48l-229.040-229.040c-30.48-30.48-30.48-80 0-110.48l16.96-16.96c30.48-30.48 80-30.48 110.48 0l229.040 229.040c81.12-31.84 176.88-15.12 242.48 50.48 62.48 62.48 80.64 152.4 54.64 230.96-5.12 15.44-25.040 19.76-36.56 8.24z" />
<glyph unicode="&#xe930;" glyph-name="svg_web-icon_p1_049-regional_network" data-tags="svg_web-icon_p1_049-regional_network" d="M773.2 243.6h-49.36v12.24c0 43.76-35.6 79.44-79.44 79.44h-116.080v61.12h44.32c41.36 0 74.8 33.52 74.8 74.8v125.2c0 41.36-33.52 74.8-74.8 74.8h-125.2c-41.36 0-74.8-33.52-74.8-74.8v-125.2c0-41.36 33.52-74.8 74.8-74.8h44.32v-61.12h-116.080c-43.76 0-79.44-35.6-79.44-79.44v-12.24h-45.28c-41.36 0-74.8-33.52-74.8-74.8v-125.2c0-41.36 33.52-74.8 74.8-74.8h125.2c41.36 0 74.8 33.52 74.8 74.8v125.2c0 41.36-33.52 74.8-74.8 74.8h-43.28v12.24c0 23.6 19.2 42.8 42.8 42.8h268.8c23.6 0 42.8-19.2 42.8-42.8v-12.24h-39.2c-41.36 0-74.8-33.52-74.8-74.8v-125.2c0-41.36 33.52-74.8 74.8-74.8h125.2c41.36 0 74.8 33.52 74.8 74.8v125.2c0 41.36-33.52 74.8-74.8 74.8z" />
<glyph unicode="&#xe931;" glyph-name="svg_web-icon_p1_050-report" data-tags="svg_web-icon_p1_050-report" d="M588.8 434.72h181.28l-204.88 204.88v-181.28c0-13.040 10.56-23.6 23.6-23.6zM593.44 385.6c-42.72 0-77.36 34.64-77.36 77.36v193.12h-168c-56.56 0-102.4-45.84-102.4-102.4v-467.12c0-56.56 45.84-102.4 102.4-102.4h327.84c56.56 0 102.4 45.84 102.4 102.4v299.12h-184.88zM720.72 271.6c-7.76-10.88-20.32-16.32-32.72-15.6l-119.68-167.6c-3.76-5.28-9.84-8.4-16.24-8.4h-0.24c-6.56 0-12.64 3.36-16.32 8.72l-104.24 152.88-61.6-82.16c4.4-11.68 3.040-25.2-4.96-35.92-12.48-16.64-36-20-52.64-7.52s-20 36-7.52 52.64c8 10.72 20.72 15.84 33.12 14.8l78.4 104.56c3.84 5.2 9.68 8.16 16.48 8 6.48-0.16 12.4-3.36 16.080-8.72l103.84-152.32 103.040 144.24c-4.72 11.52-3.68 25.12 4.16 36.080 12.080 16.88 35.52 20.8 52.48 8.72s20.8-35.52 8.72-52.48z" />
<glyph unicode="&#xe932;" glyph-name="svg_web-icon_p1_051-hub" data-tags="svg_web-icon_p1_051-hub" d="M407.6 412.96c1.12-0.16 2.24-0.24 3.36-0.24 6.72 0 12.88 3.12 14.56 7.76 4.8 14 7.28 28.32 7.28 42.64 0 14.24-2.48 28.4-7.28 42.24-1.92 5.44-9.92 8.72-17.92 7.44s-12.96-6.64-11.12-12.080v0c4.32-12.32 6.4-24.96 6.4-37.68 0-12.8-2.24-25.6-6.56-38.080-1.92-5.36 3.12-10.8 11.2-12.080zM533.040 322.72c2.080-0.64 4.16-0.96 6.24-0.96 5.6 0 11.040 2.16 13.6 5.76 30 42.88 45.040 89.2 45.040 135.44s-15.12 92.56-45.12 135.44c-3.52 5.040-12.48 7.2-19.84 4.8-7.44-2.32-10.64-8.32-7.12-13.36v0c28.16-40.24 42.16-83.52 42.16-126.88 0-43.44-14-86.72-42.16-126.96-3.52-5.040-0.32-11.040 7.2-13.36zM475.44 375.84c1.6-0.4 3.28-0.56 4.88-0.56 6.24 0 12.080 2.64 14.24 6.8 13.28 26.16 20.080 53.6 20.080 81.12 0 27.28-6.56 54.64-20.080 80.56-2.72 5.2-11.2 8-18.96 6.16-7.76-1.76-11.92-7.52-9.2-12.72 12.24-23.76 18.32-48.88 18.32-74 0-25.28-6.24-50.56-18.56-74.56-2.72-5.2 1.44-10.96 9.28-12.72zM807.2 249.68h-456v255.2c0 3.12-2.56 5.68-5.68 5.68h-27.12c-3.12 0-5.68-2.56-5.68-5.68v-255.2h-95.84c-15.36 0-27.84-12.48-27.84-27.84v-132.48c0-15.36 12.48-27.84 27.84-27.84h590.4c15.36 0 27.84 12.48 27.84 27.84v132.48c0 15.36-12.48 27.84-27.84 27.84zM280.72 122.56c-21.040-3.44-39.12 14.48-35.84 35.6 2.080 13.040 12.72 23.68 25.76 25.68 20.88 3.2 38.64-14.48 35.52-35.36-1.92-13.040-12.48-23.84-25.52-25.92zM395.040 122.56c-21.040-3.12-38.64 14.72-35.44 35.68 2 13.040 12.72 23.68 25.76 25.68 20.96 3.2 38.8-14.64 35.52-35.68-2-13.12-12.8-23.76-25.84-25.68zM509.6 122.56c-20.96-3.2-38.72 14.64-35.52 35.6 2 13.040 12.64 23.76 25.68 25.76 20.96 3.28 38.88-14.56 35.6-35.6-2-13.12-12.72-23.76-25.84-25.76z" />
<glyph unicode="&#xe933;" glyph-name="svg_web-icon_p1_052-register" data-tags="svg_web-icon_p1_052-register" d="M868.24 371.2c-1.28 8.64-8.48 15.2-17.2 15.6-41.36 1.68-80.8 24.24-102.32 63.12s-19.68 84.48 0.96 120.4c4.4 7.6 2.48 17.28-4.16 22.96-29.040 24.8-62.080 45.040-98 59.6-8.24 3.36-17.76 0.48-22.48-7.12-22-35.36-61.6-58.64-106.24-57.84-45.12 0.8-84.16 25.92-104.72 62.72-4.32 7.76-13.76 11.040-22.16 8.080-36.64-12.96-70.48-31.68-100.64-55.040-7.12-5.52-9.28-15.36-4.96-23.28 20.56-37.040 21.28-83.76-2.16-122.64-23.6-39.2-65.6-60.4-108.24-59.28-8.96 0.24-16.72-6.24-18.32-15.12-3.76-20.8-5.68-42.24-5.68-64.080 0-17.28 1.2-34.24 3.6-50.8 1.28-8.88 8.8-15.52 17.76-15.6 42.8-0.32 84.080-23.12 106.32-63.2 22.080-39.92 19.52-86.72-2.56-123.12-4.72-7.68-2.88-17.68 4.080-23.52 29.28-24.48 62.48-44.4 98.56-58.64 8.32-3.28 17.92-0.24 22.48 7.44 21.76 36.48 61.92 60.56 107.44 59.76 44.96-0.8 83.84-25.76 104.48-62.24 4.4-7.76 13.92-11.040 22.32-8 36.4 13.44 70.080 32.56 99.92 56.32 6.88 5.52 9.12 15.12 4.96 22.96-19.68 36.8-20.080 82.72 2.96 121.12 22.88 38 63.2 59.2 104.56 59.36 8.72 0 16.24 6.4 17.76 15.040 3.6 20.48 5.52 41.6 5.52 63.2 0 17.68-1.28 34.96-3.76 51.92zM512 113.2c-114.24 0-206.88 92.64-206.88 206.88s92.64 206.88 206.88 206.88 206.88-92.64 206.88-206.88-92.64-206.88-206.88-206.88zM475.44 196c-7.76 0-15.040 3.76-19.52 10.080l-69.76 97.68c-7.68 10.8-5.2 25.76 5.6 33.52 10.8 7.68 25.76 5.2 33.44-5.6l50.24-70.32 123.36 172.64c7.68 10.8 22.72 13.28 33.52 5.6s13.28-22.72 5.6-33.52l-142.88-200c-4.48-6.32-11.76-10.080-19.52-10.080z" />
<glyph unicode="&#xe934;" glyph-name="svg_web-icon_p1_053-battery_0" data-tags="svg_web-icon_p1_053-battery_0" d="M865.28 398.32h-21.44v55.92c0 41.040-33.52 74.56-74.56 74.56h-566.72c-41.040 0-74.56-33.52-74.56-74.56v-268.4c0-41.040 33.52-74.56 74.56-74.56h566.64c41.040 0 74.56 33.52 74.56 74.56v55.92h21.44c16.88 0 30.72 13.84 30.72 30.72v95.040c0 16.88-13.84 30.72-30.72 30.72zM784.16 185.84c0-8.080-6.8-14.88-14.88-14.88h-566.72c-8.080 0-14.88 6.8-14.88 14.88v268.4c0 8.080 6.8 14.88 14.88 14.88h566.64c8.080 0 14.88-6.8 14.88-14.88v-268.4z" />
<glyph unicode="&#xe935;" glyph-name="svg_web-icon_p1_054-battery_1" data-tags="svg_web-icon_p1_054-battery_1" d="M865.28 398.32h-21.44v55.92c0 41.040-33.52 74.56-74.56 74.56h-566.72c-41.040 0-74.56-33.52-74.56-74.56v-268.4c0-41.040 33.52-74.56 74.56-74.56h566.64c41.040 0 74.56 33.52 74.56 74.56v55.92h21.44c16.88 0 30.72 13.84 30.72 30.72v95.040c0 16.88-13.84 30.72-30.72 30.72zM784.16 185.84c0-8.080-6.8-14.88-14.88-14.88h-566.72c-8.080 0-14.88 6.8-14.88 14.88v268.4c0 8.080 6.8 14.88 14.88 14.88h566.64c8.080 0 14.88-6.8 14.88-14.88v-268.4zM245.52 432h93.040c9.68 0 17.52-7.84 17.52-17.52v-189.040c0-9.68-7.84-17.52-17.52-17.52h-92.96c-9.68 0-17.52 7.84-17.52 17.52v188.96c0 9.68 7.84 17.52 17.52 17.52z" />
<glyph unicode="&#xe936;" glyph-name="svg_web-icon_p1_055-battery_2" data-tags="svg_web-icon_p1_055-battery_2" d="M865.28 398.32h-21.44v55.92c0 41.040-33.52 74.56-74.56 74.56h-566.72c-41.040 0-74.56-33.52-74.56-74.56v-268.4c0-41.040 33.52-74.56 74.56-74.56h566.64c41.040 0 74.56 33.52 74.56 74.56v55.92h21.44c16.88 0 30.72 13.84 30.72 30.72v95.040c0 16.88-13.84 30.72-30.72 30.72zM784.16 185.84c0-8.080-6.8-14.88-14.88-14.88h-566.72c-8.080 0-14.88 6.8-14.88 14.88v268.4c0 8.080 6.8 14.88 14.88 14.88h566.64c8.080 0 14.88-6.8 14.88-14.88v-268.4zM245.52 432h221.040c9.68 0 17.52-7.84 17.52-17.52v-189.040c0-9.68-7.84-17.52-17.52-17.52h-220.96c-9.68 0-17.52 7.84-17.52 17.52v188.96c0 9.68 7.84 17.52 17.52 17.52z" />
<glyph unicode="&#xe937;" glyph-name="svg_web-icon_p1_056-battery_3" data-tags="svg_web-icon_p1_056-battery_3" d="M865.28 398.32h-21.44v55.92c0 41.040-33.52 74.56-74.56 74.56h-566.72c-41.040 0-74.56-33.52-74.56-74.56v-268.4c0-41.040 33.52-74.56 74.56-74.56h566.64c41.040 0 74.56 33.52 74.56 74.56v55.92h21.44c16.88 0 30.72 13.84 30.72 30.72v95.040c0 16.88-13.84 30.72-30.72 30.72zM784.16 185.84c0-8.080-6.8-14.88-14.88-14.88h-566.72c-8.080 0-14.88 6.8-14.88 14.88v268.4c0 8.080 6.8 14.88 14.88 14.88h566.64c8.080 0 14.88-6.8 14.88-14.88v-268.4zM245.52 432h349.040c9.68 0 17.52-7.84 17.52-17.52v-189.040c0-9.68-7.84-17.52-17.52-17.52h-349.040c-9.68 0-17.52 7.84-17.52 17.52v188.96c0 9.68 7.84 17.52 17.52 17.52z" />
<glyph unicode="&#xe938;" glyph-name="svg_web-icon_p1_057-battery_full" data-tags="svg_web-icon_p1_057-battery_full" d="M865.28 398.32h-21.44v55.92c0 41.040-33.52 74.56-74.56 74.56h-566.72c-41.040 0-74.56-33.52-74.56-74.56v-268.4c0-41.040 33.52-74.56 74.56-74.56h566.64c41.040 0 74.56 33.52 74.56 74.56v55.92h21.44c16.88 0 30.72 13.84 30.72 30.72v95.040c0 16.88-13.84 30.72-30.72 30.72zM784.16 185.84c0-8.080-6.8-14.88-14.88-14.88h-566.72c-8.080 0-14.88 6.8-14.88 14.88v268.4c0 8.080 6.8 14.88 14.88 14.88h566.64c8.080 0 14.88-6.8 14.88-14.88v-268.4zM245.52 432h477.040c9.68 0 17.52-7.84 17.52-17.52v-189.040c0-9.68-7.84-17.52-17.52-17.52h-477.040c-9.68 0-17.52 7.84-17.52 17.52v188.96c0 9.68 7.84 17.52 17.52 17.52z" />
<glyph unicode="&#xe939;" glyph-name="svg_web-icon_p1_058-charging" data-tags="svg_web-icon_p1_058-charging" d="M865.28 398.32h-21.44v55.92c0 41.040-33.52 74.56-74.56 74.56h-566.72c-41.040 0-74.56-33.52-74.56-74.56v-268.4c0-41.040 33.52-74.56 74.56-74.56h566.64c41.040 0 74.56 33.52 74.56 74.56v55.92h21.44c16.88 0 30.72 13.84 30.72 30.72v95.040c0 16.88-13.84 30.72-30.72 30.72zM784.16 185.84c0-8.080-6.8-14.88-14.88-14.88h-566.72c-8.080 0-14.88 6.8-14.88 14.88v268.4c0 8.080 6.8 14.88 14.88 14.88h566.64c8.080 0 14.88-6.8 14.88-14.88v-268.4zM577.6 356.56h-52.32v73.040c0 15.28-20.64 20-27.28 6.32l-64.48-131.84c-4.64-9.6 2.32-20.72 12.96-20.72h52.32v-73.040c0-15.28 20.64-20 27.28-6.32l64.48 131.84c4.64 9.6-2.32 20.72-12.96 20.72z" />
<glyph unicode="&#xe93a;" glyph-name="svg_web-icon_p1_059-lock" data-tags="svg_web-icon_p1_059-lock" d="M691.040 426.8v97.36c0 87.52-71.2 158.72-158.72 158.72h-40.72c-87.52 0-158.72-71.2-158.72-158.72v-97.36c-61.6-9.2-108.96-62.16-108.96-126.4v-215.36c0-70.64 57.28-127.92 127.92-127.92h320.080c70.64 0 127.92 57.28 127.92 127.92v215.36c0 64.16-47.28 117.2-108.96 126.4zM512 128c-39.76 0-72 32.24-72 72s32.24 72 72 72 72-32.24 72-72-32.24-72-72-72zM627.040 428.4h-230.16v95.84c0 52.24 42.48 94.72 94.72 94.72h40.72c52.24 0 94.72-42.48 94.72-94.72v-95.84z" />
<glyph unicode="&#xe93b;" glyph-name="svg_web-icon_p1_060-unlock" data-tags="svg_web-icon_p1_060-unlock" d="M691.040 434.8v97.36c0 87.68-71.040 158.72-158.72 158.72h-40.72c-68.64 0-127.2-43.84-149.2-105.040-7.36-20.4 8.56-41.92 30.24-41.92v0c13.12 0 25.44 7.84 29.92 20.24 13.12 36.48 48.080 62.72 89.040 62.72h40.72c52.32 0 94.72-42.4 94.72-94.72v-95.84h-294.16c-52.96 0-108.96-63.76-108.96-127.92v-215.36c0-70.64 57.28-127.92 127.92-127.92h320.080c70.64 0 127.92 57.28 127.92 127.92v215.36c0 64.16-47.28 117.2-108.96 126.4zM524.16 137.040c-49.28-8.080-91.28 33.92-83.2 83.2 4.88 29.84 28.96 53.92 58.8 58.8 49.28 8.080 91.28-33.92 83.2-83.2-4.88-29.84-28.96-53.92-58.8-58.8z" />
<glyph unicode="&#xe93c;" glyph-name="svg_web-icon_p1_061-signal_0" data-tags="svg_web-icon_p1_061-signal_0" d="M800 544c17.68 0 32-14.32 32-32v-384c0-17.68-14.32-32-32-32s-32 14.32-32 32v384c0 17.68 14.32 32 32 32zM800 608v0c-53.040 0-96-42.96-96-96v-384c0-53.040 42.96-96 96-96v0c53.040 0 96 42.96 96 96v384c0 53.040-42.96 96-96 96v0zM512 352c17.68 0 32-14.32 32-32v-192c0-17.68-14.32-32-32-32s-32 14.32-32 32v192c0 17.68 14.32 32 32 32zM512 416v0c-53.040 0-96-42.96-96-96v-192c0-53.040 42.96-96 96-96v0c53.040 0 96 42.96 96 96v192c0 53.040-42.96 96-96 96v0zM224 160c17.68 0 32-14.32 32-32s-14.32-32-32-32-32 14.32-32 32 14.32 32 32 32zM224 224v0c-53.040 0-96-42.96-96-96s42.96-96 96-96v0c53.040 0 96 42.96 96 96s-42.96 96-96 96v0z" />
<glyph unicode="&#xe93d;" glyph-name="svg_web-icon_p1_062-signal_1" data-tags="svg_web-icon_p1_062-signal_1" d="M800 544c17.68 0 32-14.32 32-32v-384c0-17.68-14.32-32-32-32s-32 14.32-32 32v384c0 17.68 14.32 32 32 32zM800 608c-53.040 0-96-42.96-96-96v-384c0-53.040 42.96-96 96-96s96 42.96 96 96v384c0 53.040-42.96 96-96 96v0zM512 352c17.68 0 32-14.32 32-32v-192c0-17.68-14.32-32-32-32s-32 14.32-32 32v192c0 17.68 14.32 32 32 32zM512 416c-53.040 0-96-42.96-96-96v-192c0-53.040 42.96-96 96-96s96 42.96 96 96v192c0 53.040-42.96 96-96 96v0zM224 224c53.019 0 96-42.981 96-96s-42.981-96-96-96c-53.019 0-96 42.981-96 96s42.981 96 96 96z" />
<glyph unicode="&#xe93e;" glyph-name="svg_web-icon_p1_063-signal_2" data-tags="svg_web-icon_p1_063-signal_2" d="M800 544c17.68 0 32-14.32 32-32v-384c0-17.68-14.32-32-32-32s-32 14.32-32 32v384c0 17.68 14.32 32 32 32zM800 608v0c-53.040 0-96-42.96-96-96v-384c0-53.040 42.96-96 96-96v0c53.040 0 96 42.96 96 96v384c0 53.040-42.96 96-96 96v0zM512 416c53.019 0 96-42.981 96-96v-192c0-53.019-42.981-96-96-96s-96 42.981-96 96v192c0 53.019 42.981 96 96 96zM224 224c53.019 0 96-42.981 96-96s-42.981-96-96-96c-53.019 0-96 42.981-96 96s42.981 96 96 96z" />
<glyph unicode="&#xe93f;" glyph-name="svg_web-icon_p1_064-signal_full" data-tags="svg_web-icon_p1_064-signal_full" d="M800 608c53.019 0 96-42.981 96-96v-384c0-53.019-42.981-96-96-96s-96 42.981-96 96v384c0 53.019 42.981 96 96 96zM512 416c53.019 0 96-42.981 96-96v-192c0-53.019-42.981-96-96-96s-96 42.981-96 96v192c0 53.019 42.981 96 96 96zM224 224c53.019 0 96-42.981 96-96s-42.981-96-96-96c-53.019 0-96 42.981-96 96s42.981 96 96 96z" />
<glyph unicode="&#xe940;" glyph-name="svg_web-icon_p1_065-poor" data-tags="svg_web-icon_p1_065-poor" d="M511.92 656c-185.52 0-335.92-150.4-335.92-336s150.4-336 335.92-336 336.080 150.48 336.080 336-150.48 336-336.080 336zM511.92 75.52c-135.040 0-244.4 109.44-244.4 244.48s109.44 244.48 244.4 244.48 244.48-109.44 244.48-244.48-109.44-244.48-244.48-244.48zM450 360.48c0 29.68-24.080 53.76-53.76 53.76s-53.76-24.080-53.76-53.76 24.080-53.76 53.76-53.76 53.76 24.080 53.76 53.76zM627.68 414.24c-29.68 0-53.76-24.080-53.76-53.76s24.080-53.76 53.76-53.76 53.76 24.080 53.76 53.76-24.080 53.76-53.76 53.76zM427.76 164.24c23.68 17.52 52.56 27.92 84.16 27.92s60.48-10.4 84.16-27.92c9.92-7.36 23.92-5.28 31.28 4.56 7.36 9.92 5.28 24-4.56 31.36-30.88 22.96-69.28 36.8-110.8 36.8s-80-13.84-110.88-36.8c-9.92-7.36-11.92-21.44-4.64-31.36 7.44-9.92 21.36-11.92 31.28-4.56z" />
<glyph unicode="&#xe941;" glyph-name="svg_web-icon_p1_066-ordinary" data-tags="svg_web-icon_p1_066-ordinary" d="M511.92 656c-185.52 0-335.92-150.4-335.92-336s150.4-336 335.92-336 336.080 150.48 336.080 336-150.48 336-336.080 336zM511.92 75.52c-135.040 0-244.4 109.44-244.4 244.48s109.44 244.48 244.4 244.48 244.48-109.44 244.48-244.48-109.44-244.48-244.48-244.48zM396.24 414.24c-29.68 0-53.76-24.080-53.76-53.76s24.080-53.76 53.76-53.76 53.76 24.080 53.76 53.76-24.080 53.76-53.76 53.76zM627.68 414.24c-29.68 0-53.76-24.080-53.76-53.76s24.080-53.76 53.76-53.76 53.76 24.080 53.76 53.76-24.080 53.76-53.76 53.76zM541.76 238.080h-59.52c-12.4 0-22.4-10-22.4-22.4s10-22.4 22.4-22.4h59.52c12.32 0 22.4 10 22.4 22.4s-10.080 22.4-22.4 22.4z" />
<glyph unicode="&#xe942;" glyph-name="svg_web-icon_p1_067-good" data-tags="svg_web-icon_p1_067-good" d="M511.92 656c-185.52 0-335.92-150.4-335.92-336s150.4-336 335.92-336 336.080 150.48 336.080 336-150.48 336-336.080 336zM511.92 75.52c-135.040 0-244.4 109.44-244.4 244.48s109.44 244.48 244.4 244.48 244.48-109.44 244.48-244.48-109.44-244.48-244.48-244.48zM450 360.48c0 29.68-24.080 53.76-53.76 53.76s-53.76-24.080-53.76-53.76 24.080-53.76 53.76-53.76 53.76 24.080 53.76 53.76zM627.68 414.24c-29.68 0-53.76-24.080-53.76-53.76s24.080-53.76 53.76-53.76 53.76 24.080 53.76 53.76-24.080 53.76-53.76 53.76zM596.16 216.32c-23.68-17.52-52.56-27.92-84.16-27.92s-60.48 10.4-84.16 27.92c-9.92 7.36-23.92 5.28-31.28-4.64s-5.28-23.92 4.56-31.36c30.8-22.96 69.28-36.8 110.8-36.8s80 13.84 110.88 36.8c9.92 7.36 11.92 21.44 4.56 31.36s-21.36 12-31.28 4.64z" />
<glyph unicode="&#xe943;" glyph-name="svg_web-icon_p1_068-great" data-tags="svg_web-icon_p1_068-great" d="M511.92 656c-185.52 0-335.92-150.4-335.92-336s150.4-336 335.92-336 336.080 150.48 336.080 336-150.48 336-336.080 336zM511.92 75.52c-135.040 0-244.4 109.44-244.4 244.48s109.44 244.48 244.4 244.48 244.48-109.44 244.48-244.48-109.44-244.48-244.48-244.48zM450 352.4c0 29.68-24.080 53.76-53.76 53.76s-53.76-24.080-53.76-53.76 24.080-53.76 53.76-53.76 53.76 24.080 53.76 53.76zM627.68 406.16c-29.68 0-53.76-24.080-53.76-53.76s24.080-53.76 53.76-53.76 53.76 24.080 53.76 53.76-24.080 53.76-53.76 53.76zM512 131.76c66.8 0 122.88 45.6 138.96 107.44h-278c16.16-61.76 72.16-107.44 138.96-107.44z" />
<glyph unicode="&#xe944;" glyph-name="svg_web-icon_p1_069-about" data-tags="svg_web-icon_p1_069-about" d="M512 656c-185.6 0-336-150.4-336-336s150.4-336 336-336 336 150.4 336 336-150.4 336-336 336zM546.32 94.96c-9.6-10-20.96-14.96-34-14.96-14.16 0-26.080 4.88-35.92 14.72-9.76 9.76-14.72 21.76-14.72 35.92 0 13.040 4.88 24.4 14.72 34 9.76 9.6 21.76 14.4 35.92 14.4 13.040 0 24.4-4.88 34-14.72 9.6-9.76 14.4-21.040 14.4-33.68 0-13.76-4.8-25.68-14.4-35.6zM567.68 516.48l-17.76-257.12c-1.44-21.2-17.92-37.52-37.68-37.52s-36.16 16.32-37.68 37.44l-18.32 257.12c-1.68 23.52 15.68 43.68 37.68 43.68h36.080c22 0 39.28-20.080 37.68-43.52z" />
<glyph unicode="&#xe945;" glyph-name="svg_web-icon_p1_070-doubt" data-tags="svg_web-icon_p1_070-doubt" d="M512 656c-185.6 0-336-150.4-336-336s150.4-336 336-336 336 150.4 336 336-150.4 336-336 336zM534 94.8c-9.92-9.84-21.68-14.8-35.2-14.8s-25.76 4.88-35.68 14.8c-9.92 9.84-14.8 21.68-14.64 35.6-0.16 13.12 4.32 24.4 13.36 33.92 9.76 10.32 23.76 16.16 37.92 15.92 13.2-0.24 24.64-5.12 34.32-14.64 9.92-9.76 14.96-21.52 15.12-35.2-0.16-13.92-5.2-25.76-15.12-35.6zM638.48 368.080c-12.32-17.84-28.96-33.12-50-45.76-18.64-11.44-32.080-23.84-40.48-37.2-7.2-11.52-11.44-33.68-12.64-55.040-0.32-5.84-5.28-10.32-11.12-10.32h-54.080c-6.32 0-11.36 5.28-11.2 11.6 0.72 24.16 3.28 49.12 7.68 63.2 5.12 16.4 12.4 29.6 22 39.6 9.52 10 20.96 19.2 34.4 27.6 13.84 8.72 25.52 18.8 34.88 30.16 9.36 11.44 14.080 25.2 14.080 41.2 0 18-6.16 32.4-18.4 43.12-12.32 10.72-27.2 16.16-44.72 16.16-16.16 0-30.88-5.2-44.080-15.68-8.080-6.4-13.84-14.8-17.36-25.36-4.56-13.44-17.040-22.56-31.28-22.56h-15.76c-22 0-38.32 21.28-31.76 42.32 3.52 11.12 8.32 21.28 14.56 30.32 13.36 19.44 31.040 34.080 53.040 43.92s46.4 14.72 73.12 14.72c29.12 0 54.8-5.12 76.96-15.36s39.52-24.72 51.92-43.6c12.4-18.88 18.64-41.12 18.64-66.96s-6.16-48.24-18.4-66.16z" />
<glyph unicode="&#xe946;" glyph-name="svg_web-icon_p1_071-connect" data-tags="svg_web-icon_p1_071-connect" d="M352 192h-27.92c-69.040 0-128.72 52.96-131.92 121.92-3.44 73.36 55.28 134.080 127.84 134.080h32c17.68 0 32 14.32 32 32v0c0 17.68-14.32 32-32 32h-27.040c-113.36 0-204.48-92.8-196.48-205.84 7.12-99.6 90.16-178.16 191.52-178.16h32c17.68 0 32 14.32 32 32v0c0 17.68-14.32 32-32 32zM699.040 512h-27.040c-17.68 0-32-14.32-32-32s14.32-32 32-32h27.92c69.040 0 128.72-52.96 131.92-121.92 3.44-73.36-55.28-134.080-127.84-134.080h-32c-17.68 0-32-14.32-32-32s14.32-32 32-32h32c101.36 0 184.4 78.56 191.52 178.16 8.080 113.040-83.12 205.84-196.48 205.84zM264 320c0-17.68 14.32-32 32-32h432c17.68 0 32 14.32 32 32s-14.32 32-32 32h-432c-17.68 0-32-14.32-32-32z" />
<glyph unicode="&#xe947;" glyph-name="svg_web-icon_p1_072-unconnect" data-tags="svg_web-icon_p1_072-unconnect" d="M384 160v0c0 17.68-14.32 32-32 32h-27.92c-69.040 0-128.72 52.96-131.92 121.92-3.44 73.36 55.28 134.080 127.84 134.080h32c17.68 0 32 14.32 32 32v0c0 17.68-14.32 32-32 32h-27.040c-113.36 0-204.48-92.8-196.48-205.84 7.12-99.6 90.16-178.16 191.52-178.16h32c17.68 0 32 14.32 32 32zM699.040 512h-27.040c-17.68 0-32-14.32-32-32s14.32-32 32-32h27.92c69.040 0 128.72-52.96 131.92-121.92 3.44-73.36-55.28-134.080-127.84-134.080h-32c-17.68 0-32-14.32-32-32s14.32-32 32-32h32c101.36 0 184.4 78.56 191.52 178.16 8.080 113.040-83.12 205.84-196.48 205.84zM391.36 642.64c-12.48 12.48-32.72 12.48-45.28 0-12.48-12.48-12.48-32.72 0-45.28l88-88c6.24-6.24 14.4-9.36 22.64-9.36s16.4 3.12 22.64 9.36c12.48 12.48 12.48 32.72 0 45.28l-88 88zM567.28 500c8.16 0 16.4 3.12 22.64 9.36l88 88c12.48 12.48 12.48 32.72 0 45.28-12.48 12.48-32.72 12.48-45.28 0l-88-88c-12.48-12.48-12.48-32.72 0-45.28 6.24-6.24 14.4-9.36 22.64-9.36zM434.080 130.64l-88-88c-12.48-12.48-12.48-32.72 0-45.28 6.24-6.24 14.4-9.36 22.64-9.36s16.4 3.12 22.64 9.36l88 88c12.48 12.48 12.48 32.72 0 45.28-12.48 12.48-32.72 12.48-45.28 0zM589.92 130.64c-12.48 12.48-32.72 12.48-45.28 0-12.48-12.48-12.48-32.72 0-45.28l88-88c6.24-6.24 14.4-9.36 22.64-9.36s16.4 3.12 22.64 9.36c12.48 12.48 12.48 32.72 0 45.28l-88 88z" />
<glyph unicode="&#xe948;" glyph-name="svg_web-icon_p1_073-level_fold" data-tags="svg_web-icon_p1_073-level_fold" d="M739.040 667.76c0-9.6-3.76-19.12-11.28-26.24l-327.52-311.68c-3.68-3.52-4.24-7.68-4.24-9.84s0.56-6.32 4.24-9.84l327.52-311.68c14.48-13.84 15.040-36.72 1.28-51.2s-36.72-15.040-51.2-1.28l-392.88 374 392.88 374c14.48 13.76 37.44 13.2 51.2-1.28 6.64-7.040 10-16 10-24.96z" />
<glyph unicode="&#xe949;" glyph-name="svg_web-icon_p1_074-level_unfold" data-tags="svg_web-icon_p1_074-level_unfold" d="M284.96-27.76c0 9.6 3.76 19.12 11.28 26.24l327.52 311.68c3.68 3.52 4.24 7.68 4.24 9.84s-0.56 6.32-4.24 9.84l-327.52 311.68c-14.48 13.84-15.040 36.72-1.28 51.2s36.72 15.040 51.2 1.28l392.88-374-392.88-374c-14.48-13.76-37.44-13.2-51.2 1.28-6.64 7.040-10 16-10 24.96z" />
<glyph unicode="&#xe94a;" glyph-name="svg_web-icon_p1_075-shopping_cart" data-tags="svg_web-icon_p1_075-shopping_cart" d="M823.44 526.8h-504.48c-24.16 66.16-80.4 81.2-126.24 81.2-12.8 0-23.2-10.4-23.2-23.2s10.4-23.2 23.2-23.2c66.24 0 81.92-36.56 88.48-72.4 0.32-1.68 30.48-162.32 46.4-220.8s78.96-112.64 148.56-112.64h183.040c73.28 0 136.48 51.52 151.28 123.28l43.36 210.56c3.92 19.2-10.72 37.28-30.4 37.28zM504.48 77.68c0-25.228-20.452-45.68-45.68-45.68s-45.68 20.452-45.68 45.68c0 25.228 20.452 45.68 45.68 45.68s45.68-20.452 45.68-45.68zM722.32 77.68c0-25.228-20.452-45.68-45.68-45.68s-45.68 20.452-45.68 45.68c0 25.228 20.452 45.68 45.68 45.68s45.68-20.452 45.68-45.68z" />
<glyph unicode="&#xe94b;" glyph-name="svg_web-icon_p1_076-zoom_in" data-tags="svg_web-icon_p1_076-zoom_in" d="M603.6 385.68c0 17.68-14.4 32.080-32.080 32.080h-91.6v91.6c0 17.68-14.4 32.080-32.080 32.080s-32.080-14.4-32.080-32.080v-91.6h-91.6c-17.68 0-32.080-14.4-32.080-32.080s14.4-32.080 32.080-32.080h91.6v-91.6c0-17.68 14.4-32.080 32.080-32.080s32.080 14.4 32.080 32.080v91.6h91.6c17.68 0 32.080 14.4 32.080 32.080zM837.040 38.72l-178.24 178.24c37.040 46.24 59.36 104.96 59.36 168.72 0 149.040-121.28 270.32-270.32 270.32s-270.32-121.28-270.32-270.32 121.28-270.32 270.32-270.32c62.24 0 119.52 21.2 165.28 56.64l178.56-178.56c6.24-6.24 14.48-9.36 22.64-9.36s16.4 3.12 22.64 9.36c12.56 12.48 12.56 32.8 0 45.36zM241.68 385.68c0 113.68 92.48 206.16 206.16 206.16s206.16-92.48 206.16-206.16-92.48-206.16-206.16-206.16-206.16 92.48-206.16 206.16z" />
<glyph unicode="&#xe94c;" glyph-name="svg_web-icon_p1_077-zoom_out" data-tags="svg_web-icon_p1_077-zoom_out" d="M603.6 385.68c0 17.68-14.4 32.080-32.080 32.080h-247.44c-17.68 0-32.080-14.4-32.080-32.080s14.4-32.080 32.080-32.080h247.44c17.68 0 32.080 14.4 32.080 32.080zM837.040 38.72l-178.24 178.24c37.040 46.24 59.36 104.96 59.36 168.72 0 149.040-121.28 270.32-270.32 270.32s-270.32-121.28-270.32-270.32 121.28-270.32 270.32-270.32c62.24 0 119.52 21.2 165.28 56.64l178.56-178.56c6.24-6.24 14.48-9.36 22.64-9.36s16.4 3.12 22.64 9.36c12.56 12.48 12.56 32.8 0 45.36zM241.68 385.68c0 113.68 92.48 206.16 206.16 206.16s206.16-92.48 206.16-206.16-92.48-206.16-206.16-206.16-206.16 92.48-206.16 206.16z" />
<glyph unicode="&#xe94d;" glyph-name="svg_web-icon_p1_078-filter" data-tags="svg_web-icon_p1_078-filter" d="M595.84 31.2l-127.2-73.52c-21.6-12.48-48.64 3.12-48.64 28.080v327.84h192v-254.32c0-11.6-6.16-22.24-16.16-28.080zM224 667.12v-99.12c0-24.16 11.36-46.88 30.64-61.44l162.32-122.4h190.080l162.32 122.4c19.28 14.56 30.64 37.28 30.64 61.44v99.12c0 10.88-8.8 19.6-19.6 19.6h-536.8c-10.88 0-19.6-8.8-19.6-19.6z" />
<glyph unicode="&#xe94e;" glyph-name="svg_web-icon_p1_079-user" data-tags="svg_web-icon_p1_079-user" d="M675.6 526.88c0-90.354-73.246-163.6-163.6-163.6s-163.6 73.246-163.6 163.6c0 90.354 73.246 163.6 163.6 163.6s163.6-73.246 163.6-163.6zM512 332v0c158.96 0 288-129.040 288-288v0c0-52.16-42.32-94.48-94.48-94.48h-387.040c-52.16 0-94.48 42.32-94.48 94.48v0c0 158.96 129.040 288 288 288z" />
<glyph unicode="&#xe94f;" glyph-name="svg_web-icon_p1_080-weight" data-tags="svg_web-icon_p1_080-weight" d="M827.6 151.92l-91.68 244.4c-12.96 34.48-39.12 61.12-71.52 75.28 3.68 13.2 5.84 27.12 5.84 41.44 0 85.44-69.52 154.96-154.96 154.96s-154.96-69.52-154.96-154.96c0-13.52 1.92-26.56 5.2-39.040-35.040-13.36-63.76-41.12-77.44-77.68l-91.68-244.4c-32.64-87.040 31.68-179.92 124.72-179.92h381.76c92.96 0 157.36 92.88 124.72 179.92zM408.32 513.040c0 58.96 48 106.96 106.96 106.96s106.96-48 106.96-106.96c0-10.64-1.6-20.88-4.48-30.56-2.16 0.080-4.32 0.24-6.48 0.24h-198.48s0 0 0 0c-2.88 9.6-4.4 19.76-4.4 30.32z" />
<glyph unicode="&#xe950;" glyph-name="svg_web-icon_p1_081-watch" data-tags="svg_web-icon_p1_081-watch" d="M873.36 262.56c-9.76 0-18.8 6.4-21.68 16.24-44.080 150.080-183.76 254.8-339.76 254.8s-295.68-104.8-339.76-254.8c-3.52-12-16.080-18.8-28-15.28-12 3.52-18.8 16.080-15.28 28.080 49.68 169.12 207.2 287.28 383.040 287.28s333.44-118.16 383.040-287.28c3.52-12-3.36-24.56-15.28-28.080-2.16-0.64-4.24-0.88-6.4-0.88zM512 392.48c-91.52 0-165.68-74.16-165.68-165.68s74.16-165.68 165.68-165.68 165.68 74.16 165.68 165.68-74.16 165.68-165.68 165.68zM512 171.6c-30.48 0-55.2 24.72-55.2 55.2s24.72 55.2 55.2 55.2 55.2-24.72 55.2-55.2-24.72-55.2-55.2-55.2z" />
<glyph unicode="&#xe951;" glyph-name="svg_web-icon_p1_082-information" data-tags="svg_web-icon_p1_082-information" d="M512 682.56c-200.24 0-362.56-162.32-362.56-362.56s162.32-362.56 362.56-362.56 362.56 162.32 362.56 362.56-162.32 362.56-362.56 362.56zM493.040 546.4l37.36 0.24c14.32 0.080 26-11.44 26.080-25.68l0.16-27.92c0.080-14.32-11.44-26-25.68-26.080l-37.36-0.24c-14.32-0.080-26 11.44-26.080 25.68l-0.16 27.92c-0.080 14.32 11.44 26 25.68 26.080zM582.16 94.32l-134.16-0.88c-6.8 0-12.32 5.44-12.4 12.24v0.16c0 5.040 3.040 9.76 7.76 11.52 6.48 2.48 11.12 5.36 14.080 8.72 4 4.56 6.64 10.8 8 18.64s2 22 1.84 42.64l-1.040 151.36c0 10.64-0.64 19.2-1.6 25.68-1.040 6.48-2.88 11.68-5.6 15.6s-6.48 6.88-11.12 8.88c-2.64 1.12-5.76 2.24-9.28 3.2-5.28 1.44-8.88 6.32-8.88 11.76v0.48c0 6.64 5.2 12.16 11.84 12.4l105.84 0.48c6.8 0 12.32-2.96 12.4-9.76l1.44-219.040c0.080-12.16 0.32-21.52 0.64-28.16 0.4-6.64 0.88-11.68 1.6-15.28 0.64-3.6 1.6-6.8 2.8-9.6s2.8-5.44 4.8-7.76c2-2.4 4.8-4.56 8.48-6.48 1.84-0.96 4-1.84 6.4-2.72 4.96-1.68 8.24-6.32 8.32-11.52 0-6.8-5.44-12.32-12.24-12.4z" />
<glyph unicode="&#xe952;" glyph-name="svg_web-icon_p1_083-run" data-tags="svg_web-icon_p1_083-run" d="M566 261.28c15.2 32.32 30 63.84 41.84 89.2 5.28 11.36 18.48 16.72 30.16 12.16 9.92-3.84 21.92-8.4 32.64-12.48 16.96-6.48 159.68 93.12 159.68 93.12 10.56 8.24 12.72 23.36 4.96 34.32l-15.68 22c-7.12 10-20.32 13.36-31.36 8l-64.64-37.28c-18.64-9.28-46.56-27.92-65.12-18.64-38.080 19.040-130.24 74.4-196.24 87.44-10 2-16.24 1.92-23.040-2.64l-160.24-108.080c-11.44-7.68-14.48-23.2-6.88-34.72l12-18c6.64-9.92 19.36-13.84 30.4-9.28l108.8 44.8c12.32 5.040 24.96-6.32 21.2-19.12-10.4-34.96-28.080-92.48-45.28-138.24-8.88-23.6 2-50.080 24.8-60.88 33.2-15.68 74-34.96 74-34.96l125.6-56.96c4.4-2 8.16-5.2 10.72-9.28l68.24-106.080c6.64-10.32 19.76-14.32 31.040-9.44l17.84 7.68c13.44 5.84 19.040 21.92 12.16 34.8l-68.72 128.48c-2 3.68-4.88 6.88-8.4 9.2l-111.76 73.040c-10.48 6.88-14.32 20.4-8.96 31.68zM686.4 591.28c0-41.090-33.31-74.4-74.4-74.4s-74.4 33.31-74.4 74.4c0 41.090 33.31 74.4 74.4 74.4s74.4-33.31 74.4-74.4zM295.12 95.84l-90.64-20.88c-12-2.8-20.48-13.44-20.48-25.76v-16.16c0-15.2 12.72-27.2 27.92-26.4l129.52 7.2c6.48 0.4 12.64 3.12 17.2 7.68l86.88 86.88c13.040 13.040 9.040 35.12-7.76 42.72l-48.64 22.080c-11.12 5.040-24.32 1.84-31.76-7.84l-46.080-59.28c-4-5.2-9.68-8.8-16.080-10.24z" />
<glyph unicode="&#xe953;" glyph-name="svg_web-icon_p1_084-cycle" data-tags="svg_web-icon_p1_084-cycle" d="M469.36 366.72l73.12 36.64c12.24 6.16 27.12 1.36 33.52-10.64l22.48-42.24c3.2-6 8.72-10.48 15.2-12.32l163.2-47.2c11.2-3.28 23.2 1.68 28.88 11.84v0c7.52 13.36 1.44 30.24-12.8 35.76l-114.080 44.32c-7.28 2.8-12.88 8.88-15.040 16.4l-27.6 94.48c-2.24 7.52-7.84 13.6-15.12 16.4l-141.12 54.080c-10.64 4.080-22.72 0.48-29.44-8.8l-134.48-186.72c-6.96-9.68-6.16-22.96 1.92-31.76l101.040-109.76c2-2.16 4.4-4 7.12-5.36l35.36-18c8.56-4.4 13.92-13.2 13.76-22.8l-2.64-168.64c-0.24-14.080 11.2-25.6 25.28-25.6h15.12c13.12 0.16 24 10.24 24.96 23.36l15.44 203.040c0.48 6.8-1.76 13.52-6.32 18.64l-85.12 95.68c-10.96 12.4-7.28 31.84 7.52 39.2zM590.8 557.52c44.72 0 80.96 36.24 80.96 80.96s-36.24 80.96-80.96 80.96-80.96-36.24-80.96-80.96 36.24-80.96 80.96-80.96zM237.44-79.84c-92.56 0-167.84 75.28-167.84 167.84s75.28 167.84 167.84 167.84 167.84-75.28 167.84-167.84-75.28-167.84-167.84-167.84zM237.44 191.84c-57.28 0-103.84-46.56-103.84-103.84s46.56-103.84 103.84-103.84 103.84 46.56 103.84 103.84-46.56 103.84-103.84 103.84zM782.56-79.84c-92.56 0-167.84 75.28-167.84 167.84s75.28 167.84 167.84 167.84 167.84-75.28 167.84-167.84-75.28-167.84-167.84-167.84zM782.56 191.84c-57.28 0-103.84-46.56-103.84-103.84s46.56-103.84 103.84-103.84 103.84 46.56 103.84 103.84-46.56 103.84-103.84 103.84z" />
<glyph unicode="&#xe954;" glyph-name="svg_web-icon_p1_085-swim" data-tags="svg_web-icon_p1_085-swim" d="M669.68 640v0c-20.24 0-39.76-7.84-54.4-21.84l-200.080-191.12c-2.080-2-4.48-3.6-7.12-4.72l-201.36-87.84c-8.96-3.92-14.72-12.72-14.72-22.48v-25.44c0-12.24 9.040-22.64 21.2-24.32l120.32-16.24c75.6-10.16 152.48-6.16 226.64 11.92v0c15.12 3.68 23.040 20.32 16.32 34.4l-19.92 41.76c-3.12 6.64-3.2 14.32-0.080 20.96l33.92 72.72c0.4 0.8 0.8 1.6 1.28 2.32l65.2 107.36c7.2 11.76 22.64 15.36 34.24 7.84l137.36-88.72c4.64-2.96 8.080-7.44 9.92-12.64l4.56-13.2c3.12-8.96 11.12-15.36 20.56-16.4v0c20.24-2.16 34.16 19.76 23.52 37.12l-16.4 26.8c-1.12 1.84-2.48 3.52-4.080 5.040l-142.8 135.12c-14.64 13.84-34 21.6-54.16 21.6zM744.64 399.36c-50.24 0-91.040-40.72-91.040-91.040 0-15.68-2.96-17.52 4-30.4l94.4-2.32 72.72-10.48c6.96 12.88 10.88 27.6 10.88 43.2 0 50.24-40.72 91.040-90.96 91.040zM460.24 112.48l-2.96 0.48-403.84 60.8c-8.72 1.28-14.72 9.44-13.44 18.24v0c1.28 8.72 9.44 14.72 18.24 13.44l398-59.92c1.92-0.32 3.92-0.24 5.84 0.16l206.32 45.68 2.32-0.16 219.12-15.92c2.4-0.16 4.72 0.16 6.96 1.040l63.84 24.8c8.24 3.2 17.52-0.88 20.72-9.12v0c3.2-8.24-0.88-17.52-9.12-20.72l-70.56-27.44c-2.24-0.88-4.56-1.2-6.96-1.040l-221.68 16.16c-1.52 0.080-3.12 0-4.64-0.32l-208.16-46.080zM470.32-4.96l-296.96 44.72c-8.72 1.28-14.72 9.44-13.44 18.24v0c1.28 8.72 9.44 14.72 18.24 13.44l291.040-43.84c1.92-0.32 3.92-0.24 5.84 0.24l152.88 33.84 2.32-0.16 161.44-11.76c2.4-0.16 4.72 0.16 6.96 1.040l42 16.32c8.24 3.2 17.52-0.88 20.72-9.12v0c3.2-8.24-0.88-17.52-9.12-20.72l-48.72-18.96c-2.24-0.88-4.56-1.2-6.96-1.040l-164 11.92c-1.52 0.080-3.12 0-4.64-0.32l-151.84-33.6c-1.92-0.4-3.92-0.48-5.84-0.24z" />
<glyph unicode="&#xe955;" glyph-name="svg_web-icon_p1_086-weight_training" data-tags="svg_web-icon_p1_086-weight_training" d="M589.2 362.32c0-44.48-36.080-80.56-80.56-80.56s-80.56 36.080-80.56 80.56 36.080 80.56 80.56 80.56 80.56-36.080 80.56-80.56zM68 592c6.627 0 12-5.373 12-12v-120c0-6.627-5.373-12-12-12s-12 5.373-12 12v120c0 6.627 5.373 12 12 12zM824 536h-616c-17.68 0-32 14.32-32 32v24c0 17.68-14.32 32-32 32v0c-17.68 0-32-14.32-32-32v-144c0-17.68 14.32-32 32-32v0c17.68 0 32 14.32 32 32v24c0 17.68 14.32 32 32 32h616c17.68 0 32-14.32 32-32v-24c0-17.68 14.32-32 32-32v0c17.68 0 32 14.32 32 32v144c0 17.68-14.32 32-32 32v0c-17.68 0-32-14.32-32-32v-24c0-17.68-14.32-32-32-32zM964 592c6.627 0 12-5.373 12-12v-120c0-6.627-5.373-12-12-12s-12 5.373-12 12v120c0 6.627 5.373 12 12 12zM725.6 594.080v0c-21.36-2.88-36.32-22.56-33.44-43.84l20.4-151.68c0.96-6.96 0-14-2.8-20.48l-32.080-75.44c-4-9.44-11.6-16.88-21.040-20.8l-55.6-22.88c-4.72-1.92-9.76-2.96-14.88-2.96h-145.36c-5.12 0-10.16 0.96-14.88 2.96l-55.52 22.88c-9.52 3.92-17.12 11.44-21.12 20.88l-32.16 76.24c-2.72 6.4-3.68 13.44-2.72 20.4l20.4 151.2c2.88 21.44-12.16 41.040-33.6 43.92v0c-21.36 2.8-40.88-12.16-43.76-33.52l-23.28-173.040c-0.96-6.88 0-13.84 2.64-20.24l53.6-128.16c3.040-7.2 8.16-13.36 14.72-17.68l58.64-38.080c7.92-5.12 13.76-13.040 16.32-22.16l30.88-109.44c1.68-5.92 1.92-12.080 0.72-18.080l-8.56-43.76c-3.84-19.6 7.76-38.88 26.8-44.8l69.76-21.52c7.44-2.32 15.36-2.32 22.8 0l72.72 22c18.8 5.68 30.48 24.48 27.2 43.84l-7.6 44.72c-0.96 5.68-0.64 11.52 0.96 17.12l31.040 109.92c2.56 9.12 8.4 16.96 16.32 22.16l58.64 38c6.56 4.24 11.76 10.4 14.8 17.68l53.6 128.080c2.64 6.4 3.6 13.36 2.64 20.24l-23.28 172.8c-2.88 21.36-22.56 36.32-43.92 33.44z" />
<glyph unicode="&#xe956;" glyph-name="svg_web-icon_p1_087-aerobic" data-tags="svg_web-icon_p1_087-aerobic" d="M528.64 545.040c53.040-8.72 98.16 36.48 89.44 89.52-5.28 32.080-31.2 57.92-63.28 63.2-52.96 8.64-98.080-36.48-89.44-89.44 5.28-32.080 31.12-58 63.2-63.2zM770.88-39.44l5.12 206.56c0.080 4.48-2.16 8.64-6 10.88l-139.6 83.68c-2.48 1.44-4.32 3.76-5.28 6.48l-20.24 57.040c-0.8 2.32-0.96 4.8-0.32 7.12l1.84 7.36c0.24 0.88 0.56 1.68 0.96 2.48l41.52 83.36c2 3.92 1.68 8.64-0.72 12.32l-44.8 67.76c-2.080 3.12-5.44 5.12-9.12 5.52l-134.4 12.72c-3.12 0.32-6.24-0.64-8.72-2.56l-141.92-110.32c-6.080-4.72-6.4-13.84-0.64-18.96l102.64-91.36-0.16-0.32 40.64-32.24c5.040-4 6.16-11.28 2.56-16.64l-80.4-117.76c-0.64-0.96-1.44-1.84-2.4-2.56l-159.84-130.72c-4.4-3.6-5.76-9.68-3.36-14.8l31.040-66.56c2-4.32 6.4-7.12 11.2-7.12h58.080c5.36 0 10.080 3.44 11.76 8.48l0.4 1.12c1.84 5.52-0.4 11.52-5.36 14.48l-28.080 16.88c-4.24 2.56-6.56 7.36-5.92 12.24l2.32 17.36c0.56 4.080 3.12 7.68 6.8 9.52l178.72 87.36c0.8 0.4 1.6 0.88 2.24 1.44l82.32 65.44c2.96 2.32 6.8 3.2 10.4 2.4l114.48-26.080c4.72-1.040 8.32-4.8 9.36-9.44l40.96-191.36c1.2-5.68 6.24-9.76 12.080-9.76h70.96c4.080 0 7.92 2 10.24 5.44v0c4.56 6.72 1.52 16-6.16 18.64l-36.4 12.56c-5.12 1.76-8.48 6.64-8.32 12zM439.76 413.68c8.24 5.52 19.28-0.48 19.2-10.4l-0.56-75.36h-9.040l-32.4 56.64c-3.2 5.6-1.52 12.8 3.84 16.4l18.88 12.64z" />
<glyph unicode="&#xe957;" glyph-name="svg_web-icon_p1_088-row" data-tags="svg_web-icon_p1_088-row" d="M413.2 10.24l-327.28 49.28c-8.72 1.28-14.72 9.44-13.44 18.24v0c1.28 8.72 9.44 14.72 18.24 13.44l317.52-47.84c17.12-2.56 34.64-2 51.52 1.76l154.88 34.32 2.32-0.16 155.28-11.28c24-1.76 48.080 1.84 70.48 10.56l21.44 8.32c8.24 3.2 17.52-0.88 20.72-9.12v0c3.2-8.24-0.88-17.52-9.12-20.72l-58.8-22.88c-2.24-0.88-4.56-1.2-6.96-1.040l-180.48 13.12c-8.32 0.64-16.72 0-24.8-1.84l-147.68-32.72c-14.4-3.2-29.2-3.68-43.76-1.52zM468.24 487.36c53.28-8.72 98.72 36.72 89.92 90-5.28 32.32-31.36 58.32-63.6 63.6-53.36 8.8-98.8-36.72-90-90.080 5.36-32.32 31.44-58.32 63.68-63.52zM467.066 58.21l376.686 339.885c8.102 7.311 20.597 6.669 27.908-1.433s6.669-20.597-1.433-27.908l-376.686-339.885c-8.102-7.311-20.597-6.669-27.908 1.433s-6.669 20.597 1.433 27.908zM489.92 211.68l-54.48 60.24c-3.92 4.32-9.36 6.96-15.2 7.28l-26.48 1.6c-5.44 0.32-10.8-1.36-15.12-4.72l-38-29.84c-14.32-11.28-35.36-1.44-36 16.72v0c-0.24 6.24 2.16 12.24 6.56 16.64l97.6 96.64c5.28 5.28 12.88 7.52 20.24 6l117.76-24.48 153.84-34.56c7.36-1.68 14.96 0.48 20.4 5.76l4.24 4.16c12.16 11.76 7.28 32.16-8.8 37.28l-154.56 48.56c-0.64 0.16-1.2 0.4-1.84 0.64l-151.92 62.88c-3.12 1.28-6.4 1.84-9.76 1.68l-108.64-6.080c-5.12-0.32-10-2.32-13.76-5.76l-152.24-138.8c-2.48-2.24-4.4-4.96-5.6-8l-44.72-109.52c-4.32-10.48-6.96-21.6-7.92-32.88l-1.44-16.64c0-12.32 10-22.32 22.32-22.32h851.44c12.32 0 22.32 10 22.32 22.32v11.68c0 12.24-9.84 22.16-22.080 22.24l-431.68 4.080c-6.24 0-12.16 2.72-16.32 7.36z" />
<glyph unicode="&#xe958;" glyph-name="svg_web-icon_p1_089-favorite" data-tags="svg_web-icon_p1_089-favorite" d="M486.16 77.92l-133.2-83.6c-37.12-23.28-83.68 10.56-73.040 53.040l38.4 152.56c4.56 18.080-1.68 37.2-16 49.2l-120.72 100.8c-33.68 28.080-15.84 82.88 27.92 85.84l156.88 10.64c18.64 1.28 34.88 13.040 41.84 30.4l58.64 145.92c16.32 40.64 73.92 40.64 90.24 0l58.64-145.92c6.96-17.36 23.2-29.12 41.84-30.4l156.88-10.64c43.76-2.96 61.52-57.76 27.92-85.84l-120.72-100.8c-14.32-12-20.56-31.12-16-49.2l38.4-152.56c10.72-42.48-35.92-76.4-73.040-53.040l-133.2 83.6c-15.84 9.92-35.92 9.92-51.68 0zM487.040 86.24l-128.64-80.8c-35.84-22.48-80.88 10.16-70.56 51.2l37.040 147.28c4.4 17.52-1.6 35.92-15.44 47.52l-116.56 97.36c-32.48 27.12-15.28 80 26.96 82.88l151.52 10.24c18 1.2 33.68 12.64 40.4 29.36l56.64 140.96c15.76 39.28 71.36 39.28 87.2 0l56.64-140.96c6.72-16.72 22.4-28.16 40.4-29.36l151.52-10.24c42.24-2.88 59.44-55.76 26.96-82.88l-116.56-97.36c-13.84-11.52-19.84-30-15.44-47.52l37.040-147.28c10.32-41.040-34.64-73.76-70.56-51.2l-128.64 80.8c-15.28 9.6-34.64 9.6-49.92 0z" />
<glyph unicode="&#xe959;" glyph-name="svg_web-icon_p1_090-unfavorite" data-tags="svg_web-icon_p1_090-unfavorite" d="M566.72 453.2c13.76-34.16 45.84-57.52 82.56-60l123.92-8.4c8.16-0.56 11.44-10.72 5.2-16l-95.28-79.6c-28.24-23.6-40.56-61.36-31.52-97.12l30.32-120.48c2-7.92-6.72-14.24-13.6-9.92l-104.72 65.76c-5.84 3.68-12.080 6.96-18.64 9.28-28.72 10.24-59.36 6.48-84-8.96l-105.2-66c-6.88-4.32-15.6 2-13.6 9.92l30.32 120.48c8.96 35.76-3.28 73.44-31.52 97.040l-95.36 79.68c-6.24 5.2-2.96 15.44 5.2 16l123.92 8.4c36.8 2.48 68.88 25.84 82.56 60l46.32 115.28c3.040 7.6 13.76 7.6 16.8 0l46.32-115.28zM512 641.92c-17.84 0-35.68-9.84-43.6-29.44l-56.64-140.96c-6.72-16.72-22.4-28.16-40.4-29.36l-151.52-10.24c-42.24-2.88-59.44-55.76-26.96-82.88l116.56-97.36c13.84-11.52 19.84-30 15.44-47.52l-37.040-147.28c-8-31.84 17.2-58.56 45.6-58.56 8.24 0 16.8 2.24 24.88 7.36l128.64 80.8c7.6 4.8 16.32 7.2 24.96 7.2s17.36-2.4 24.96-7.2l128.64-80.8c8.080-5.040 16.64-7.36 24.88-7.36 28.4 0 53.6 26.8 45.6 58.56l-37.040 147.28c-4.4 17.52 1.6 35.92 15.44 47.52l116.56 97.36c32.48 27.12 15.28 80-26.96 82.88l-151.52 10.24c-18 1.2-33.68 12.64-40.4 29.36l-56.64 140.96c-7.92 19.68-25.76 29.44-43.6 29.44v0z" />
<glyph unicode="&#xe95a;" glyph-name="svg_web-icon_p1_091-increase" data-tags="svg_web-icon_p1_091-increase" d="M512 682.56c-200.24 0-362.56-162.32-362.56-362.56s162.32-362.56 362.56-362.56 362.56 162.32 362.56 362.56-162.32 362.56-362.56 362.56zM692 260h-120v-120c0-32.96-27.040-60-60-60s-60 27.040-60 60v120h-120c-32.96 0-60 27.040-60 60s27.040 60 60 60h120v120c0 32.96 27.040 60 60 60s60-27.040 60-60v-120h120c32.96 0 60-27.040 60-60s-27.040-60-60-60z" />
<glyph unicode="&#xe95b;" glyph-name="svg_web-icon_p1_092-delete" data-tags="svg_web-icon_p1_092-delete" d="M512 682.56c-200.24 0-362.56-162.32-362.56-362.56s162.32-362.56 362.56-362.56 362.56 162.32 362.56 362.56-162.32 362.56-362.56 362.56zM752 320c0-32.96-27.040-60-60-60h-360c-32.96 0-60 26.96-60 60v0c0 33.040 27.040 60 60 60h360c32.96 0 60-27.040 60-60v0z" />
<glyph unicode="&#xe95c;" glyph-name="svg_web-icon_p1_093-bottom" data-tags="svg_web-icon_p1_093-bottom" d="M792.72 610h-561.44c-58.56 0-106-47.44-106-106v-368.080c0-58.56 47.44-106 106-106h561.44c58.56 0 106 47.44 106 106v368.080c0 58.56-47.44 106-106 106zM651.2 96h-278.32c-17.68 0-32 14.32-32 32s14.32 32 32 32h278.32c17.68 0 32-14.32 32-32s-14.32-32-32-32zM673.84 327.28l-139.2-139.2c-6.24-6.24-14.4-9.36-22.64-9.36s-16.4 3.12-22.64 9.36l-139.2 139.2c-12.48 12.48-12.48 32.72 0 45.28 12.48 12.48 32.72 12.48 45.28 0l84.56-84.56v224c0 17.68 14.32 32 32 32s32-14.32 32-32v-224l84.56 84.56c12.48 12.48 32.72 12.48 45.28 0s12.48-32.72 0-45.28z" />
<glyph unicode="&#xe95d;" glyph-name="svg_web-icon_p1_094-top" data-tags="svg_web-icon_p1_094-top" d="M792.72 610h-561.44c-58.56 0-106-47.44-106-106v-368.080c0-58.56 47.44-106 106-106h561.44c58.56 0 106 47.44 106 106v368.080c0 58.56-47.44 106-106 106zM372.8 544h278.32c17.68 0 32-14.32 32-32s-14.32-32-32-32h-278.32c-17.68 0-32 14.32-32 32s14.32 32 32 32zM673.76 267.52c-12.48-12.48-32.72-12.48-45.28 0l-84.56 84.56v-224c0-17.68-14.32-32-32-32s-32 14.32-32 32v224l-84.56-84.56c-12.48-12.48-32.72-12.48-45.28 0s-12.48 32.72 0 45.28l139.2 139.2c6.24 6.24 14.4 9.36 22.64 9.36s16.4-3.12 22.64-9.36l139.2-139.2c12.48-12.48 12.48-32.72 0-45.28z" />
<glyph unicode="&#xe95e;" glyph-name="svg_web-icon_p1_095-question" data-tags="svg_web-icon_p1_095-question" d="M512 682.56c-200.24 0-362.56-162.32-362.56-362.56s162.32-362.56 362.56-362.56 362.56 162.32 362.56 362.56-162.32 362.56-362.56 362.56zM536.48 110.96c-10.16-9.92-22.080-14.96-35.68-14.96s-26.16 4.96-36.24 14.96c-10.080 9.92-15.040 22-14.88 36.24-0.16 13.92 4.8 25.84 14.88 35.84s22.16 14.96 36.24 14.96 25.52-4.96 35.68-14.96c10.16-9.92 15.28-21.84 15.44-35.84-0.16-14.24-5.28-26.32-15.44-36.24zM636.4 363.52c-12-16.64-28-30.8-47.84-42.64-16.8-10.080-29.040-20.96-36.88-32.64-5.52-8.24-9.2-23.76-10.96-39.52-1.2-10.8-10.4-18.88-21.2-18.88h-38.64c-12.32 0-22.080 10.32-21.44 22.64 0.96 18.32 2.96 36.24 6.080 46.64 4.32 14.8 10.64 26.64 18.96 35.68s18.4 17.28 30.4 24.8c13.040 8.4 24.080 17.52 33.040 27.36s13.44 21.76 13.44 35.68c0 14.8-5.12 26.64-15.2 35.52-10.16 8.88-22.4 13.36-36.8 13.36s-26.4-4.56-37.44-13.68c-7.36-6.080-12.4-13.92-15.2-23.68-2.64-9.36-10.96-16-20.64-16h-45.12c-13.36 0-23.52 12.16-21.2 25.28 3.12 17.44 9.12 32.48 18 45.28 12.96 18.64 30.080 32.48 51.36 41.6s44.8 13.6 70.56 13.6c28.24 0 53.28-4.64 75.040-13.92s38.8-22.8 51.12-40.4c12.32-17.6 18.56-38.88 18.56-63.76s-6-45.84-18-62.48z" />
<glyph unicode="&#xe95f;" glyph-name="svg_web-icon_p1_096-marvel" data-tags="svg_web-icon_p1_096-marvel" d="M512 682.56c-200.24 0-362.56-162.32-362.56-362.56s162.32-362.56 362.56-362.56 362.56 162.32 362.56 362.56-162.32 362.56-362.56 362.56zM494.080 544h35.6c16.56 0 29.84-13.68 29.44-30.24l-6.8-250.88c-0.4-15.92-13.44-28.64-29.44-28.64h-21.76c-15.92 0-28.96 12.64-29.44 28.64l-6.96 250.88c-0.48 16.56 12.88 30.24 29.44 30.24zM548.16 111.12c-10.32-10.080-22.32-15.12-36.16-15.12s-26.48 5.040-36.72 15.12c-10.24 10.080-15.28 22.32-15.12 36.72-0.16 14.080 4.88 26.24 15.12 36.32s22.48 15.12 36.72 15.12 25.92-5.040 36.16-15.12c10.32-10.080 15.52-22.16 15.68-36.32-0.16-14.4-5.36-26.64-15.68-36.72z" />
<glyph unicode="&#xe960;" glyph-name="svg_web-icon_p1_097-menu_storage" data-tags="svg_web-icon_p1_097-menu_storage" d="M399.12 551.44h461.36c19.617 0 35.52-15.903 35.52-35.52v0.080c0-19.617-15.903-35.52-35.52-35.52h-461.36c-19.617 0-35.52 15.903-35.52 35.52v-0.080c0 19.617 15.903 35.52 35.52 35.52zM399.12 355.52h461.36c19.617 0 35.52-15.903 35.52-35.52v0.080c0-19.617-15.903-35.52-35.52-35.52h-461.36c-19.617 0-35.52 15.903-35.52 35.52v-0.080c0 19.617 15.903 35.52 35.52 35.52zM399.12 159.6h461.36c19.617 0 35.52-15.903 35.52-35.52v0.080c0-19.617-15.903-35.52-35.52-35.52h-461.36c-19.617 0-35.52 15.903-35.52 35.52v-0.080c0 19.617 15.903 35.52 35.52 35.52zM281.36 344.24l-111.36 64.32c-18.64 10.8-42-2.72-42-24.24v-128.64c0-21.52 23.36-35.040 42-24.24l111.36 64.32c18.64 10.8 18.64 37.76 0 48.48z" />
<glyph unicode="&#xe961;" glyph-name="svg_web-icon_p1_098-warning" data-tags="svg_web-icon_p1_098-warning" d="M856.32 92.32l-295.44 511.76c-21.76 37.6-76.080 37.6-97.76 0l-295.44-511.76c-21.76-37.6 5.44-84.72 48.88-84.72h590.88c43.44 0 70.64 47.040 48.88 84.72zM500.4 465.84h37.52c12 0 21.6-9.92 21.28-21.92l-6-219.52c-0.32-11.52-9.76-20.72-21.28-20.72h-25.44c-11.52 0-20.96 9.2-21.28 20.72l-6.16 219.52c-0.32 12 9.28 21.92 21.28 21.92zM549.84 99.52c-8.96-8.8-19.52-13.040-31.68-12.8-11.12 0.24-21.92 4.88-29.84 12.64-8.72 8.56-13.040 18.96-12.96 31.2-0.16 11.92 4.080 22.16 12.72 30.64 7.92 7.84 18.72 12.56 29.84 12.8 12.24 0.32 22.88-3.92 31.92-12.8 8.72-8.56 13.12-18.8 13.28-30.72-0.080-12.16-4.56-22.56-13.28-31.040z" />
<glyph unicode="&#xe962;" glyph-name="svg_web-icon_p1_099-calendar" data-tags="svg_web-icon_p1_099-calendar" d="M856 531.12v46.4c0 42.48-34.8 77.28-77.28 77.28h-533.44c-42.48 0-77.28-34.8-77.28-77.28v-46.4h688zM168 479.92v-417.44c0-42.48 34.8-77.28 77.28-77.28h533.36c42.48 0 77.28 34.8 77.28 77.28v417.44h-687.92zM390.64 127.12c0-21.040-17.040-38.080-38.080-38.080h-35.92c-21.040 0-38.080 17.040-38.080 38.080v35.92c0 21.040 17.040 38.080 38.080 38.080h35.92c21.040 0 38.080-17.040 38.080-38.080v-35.92zM390.64 302.16c0-21.040-17.040-38.080-38.080-38.080h-35.92c-21.040 0-38.080 17.040-38.080 38.080v35.92c0 21.040 17.040 38.080 38.080 38.080h35.92c21.040 0 38.080-17.040 38.080-38.080v-35.92zM568.080 127.12c0-21.040-17.040-38.080-38.080-38.080h-35.92c-21.040 0-38.080 17.040-38.080 38.080v35.92c0 21.040 17.040 38.080 38.080 38.080h35.92c21.040 0 38.080-17.040 38.080-38.080v-35.92zM568.080 302.16c0-21.040-17.040-38.080-38.080-38.080h-35.92c-21.040 0-38.080 17.040-38.080 38.080v35.92c0 21.040 17.040 38.080 38.080 38.080h35.92c21.040 0 38.080-17.040 38.080-38.080v-35.92zM745.52 302.16c0-21.040-17.040-38.080-38.080-38.080h-35.92c-21.040 0-38.080 17.040-38.080 38.080v35.92c0 21.040 17.040 38.080 38.080 38.080h35.92c21.040 0 38.080-17.040 38.080-38.080v-35.92z" />
<glyph unicode="&#xe963;" glyph-name="svg_web-icon_p1_100-service" data-tags="svg_web-icon_p1_100-service" d="M512 668c-156.080 0-283.040-126.96-283.040-283.040v-185.36c0-47.36 28.88-88.24 69.84-106.080 3.36-52.16 46.72-93.6 99.68-93.6h48.080c11.36-16.48 36.32-28 65.36-28 39.76 0 72 21.52 72 48s-32.24 48-72 48c-29.040 0-54-11.52-65.36-28h-48.080c-27.6 0-50.88 18.8-57.84 44.24 1.36 0 2.64-0.24 4-0.24h21.68c21.28 0 38.64 17.44 38.64 38.64v138.64c0 21.28-17.44 38.64-38.64 38.64h-89.36v84.96c0 129.6 105.44 235.040 235.040 235.040s235.040-105.44 235.040-235.040v-84.96h-89.36c-21.28 0-38.64-17.44-38.64-38.64v-138.64c0-21.28 17.44-38.64 38.64-38.64h21.68c63.6 0 115.68 52.080 115.68 115.68v185.36c0 156.080-126.96 283.040-283.040 283.040z" />
<glyph unicode="&#xe964;" glyph-name="svg_web-icon_p2_001-activity" data-tags="svg_web-icon_p2_001-activity" d="M741.2-64c-15.52 0-30.48 7.76-39.36 21.6l-80.48 124.32-120.56 54.88-71.040 33.52c-32.48 15.28-48 53.52-35.44 87.040 14 37.28 28.56 83.44 38 114.88l-88.8-36.56c-20.64-8.48-44.56-1.2-56.88 17.36l-11.44 17.2c-14.24 21.44-8.56 50.56 12.8 64.88l153.12 103.28c13.84 9.36 27.040 8.4 39.28 6 53.6-10.56 121.28-46.96 166-71.040 10.8-5.84 20.16-10.88 27.36-14.48 5.52-1.44 24.16 8.48 32.080 12.72 3.2 1.68 6.16 3.28 9.040 4.72l61.28 35.28c0.48 0.24 0.96 0.56 1.44 0.8 20.72 10 45.36 3.68 58.72-15.040l14.96-21.040c14.56-20.48 10.48-48.64-9.28-64.16-0.32-0.24-0.64-0.48-1.040-0.72-146.4-102.16-162.96-95.84-174-91.6l-31.2 11.92c-11.2-24.24-25.36-54.32-39.84-85.28v0c-0.24-0.48 0-1.040 0.4-1.28l106.88-69.84c6.56-4.32 12-10.24 15.68-17.2l80.8-145.44c6.32-11.84 7.44-25.52 3.12-37.92-4.32-12.32-13.68-22.4-25.6-27.6l-17.040-7.36c-6.080-2.64-12.48-3.92-18.72-3.92zM444.64 423.76c9.2 0 18.24-3.36 25.44-9.84 10.96-9.92 15.2-24.88 10.96-39.040-10.96-37.12-27.52-90.4-43.76-133.68-4.24-11.28 1.040-24.16 12.080-29.36l70.72-33.36 119.76-54.32c8.24-3.76 15.2-9.76 20.080-17.36l80.48-124.32c0.32-0.48 0.88-0.64 1.28-0.48l17.040 7.36s0.4 0.16 0.56 0.64c0.16 0.4 0 0.72 0 0.8l-80.8 145.44 12 19.92-12.56-19.2-106.88 69.84c-19.44 12.72-26.64 38.16-16.8 59.28v0c14.56 30.88 28.64 60.96 40 85.2 10.080 21.68 35.52 31.92 57.84 23.36l26.080-10c19.52 6.96 83.44 47.52 135.6 83.84 0.32 0.32 0.32 0.88 0 1.28l-14.96 21.040s-0.64 0.48-1.040 0.4l-60.64-34.96s-0.8-0.48-1.2-0.64c-2.64-1.28-5.44-2.88-8.48-4.48-20.56-11.040-48.72-26.16-74.32-13.36-7.6 3.76-17.36 9.040-28.64 15.12-42.32 22.8-106.32 57.2-153.12 66.48-2.8 0.56-4.32 0.72-5.040 0.72l-152.8-103.040c-0.48-0.32-0.56-0.96-0.32-1.44l11.44-17.2s0.8-0.56 1.28-0.4l104 42.8c4.72 2 9.68 2.88 14.64 2.88zM634.32 515.84c-51.84 0-94.080 42.24-94.080 94.080s42.24 94.080 94.080 94.080 94.080-42.24 94.080-94.080-42.24-94.080-94.080-94.080zM634.32 658.16c-26.56 0-48.24-21.6-48.24-48.24s21.6-48.24 48.24-48.24 48.24 21.6 48.24 48.24-21.6 48.24-48.24 48.24zM212.32-33.040c-12.24 0-24.24 4.72-33.12 13.2-9.6 9.040-15.040 21.84-15.040 35.040v15.44c0 22.56 15.36 41.92 37.36 46.96l86.64 20c0.96 0.24 1.84 0.8 2.4 1.52l44.080 56.64c13.76 17.68 37.6 23.52 58 14.32l46.48-21.12c14.4-6.56 24.64-19.76 27.52-35.28 2.8-15.52-2.16-31.52-13.36-42.64l-83.040-83.040c-8.4-8.4-19.52-13.36-31.36-14.080l-123.84-6.88c-0.88 0-1.76 0-2.64 0zM298.4 52.88l-86.64-20c-1.040-0.24-1.76-1.2-1.76-2.24v-15.44c0-0.64 0.24-1.2 0.72-1.68s1.040-0.72 1.76-0.64l123.76 6.88c0.56 0 1.12 0.24 1.52 0.64l83.040 83.040s0.88 0.88 0.64 2.080c-0.24 1.2-1.040 1.6-1.36 1.68l-46.48 21.12c-0.96 0.48-2.16 0.16-2.8-0.72l-44.080-56.64c-7.040-9.040-17.12-15.52-28.32-18.080v0z" />
<glyph unicode="&#xe965;" glyph-name="svg_web-icon_p2_002-watch" data-tags="svg_web-icon_p2_002-watch" d="M746.48 382v171.44c0 36.88-30.16 67.12-67.12 67.12h-41.84s-0.32 0.16-0.32 0.32v42.8c0 22.24-18.16 40.4-40.4 40.4h-208.32c-22.24 0-40.4-18.16-40.4-40.4v-42.8s-0.16-0.32-0.32-0.32h-41.84c-36.88 0-67.12-30.16-67.12-67.12v-466.88c0-36.88 30.16-67.12 67.12-67.12h41.84s0.32-0.16 0.32-0.32v-42.8c0-22.24 18.16-40.4 40.4-40.4h208.32c22.24 0 40.4 18.16 40.4 40.4v42.8s0.16 0.32 0.32 0.32h41.84c36.88 0 67.12 30.16 67.12 67.12v168.080s0.16 0.32 0.32 0.32c21.2 0.96 38.32 18.56 38.32 40v46.72c0 21.44-17.12 39.040-38.32 40-0.16 0-0.32 0.16-0.32 0.32zM686.4 86.56c0-3.84-3.12-6.96-6.96-6.96h-373.36c-3.84 0-6.96 3.12-6.96 6.96v466.88c0 3.84 3.12 6.96 6.96 6.96h373.36c3.84 0 6.96-3.12 6.96-6.96v-466.88zM522.96 336.72c-0.24 0.56-0.64 0.96-0.96 1.52-0.56 0.96-1.12 1.92-1.76 2.8-0.56 0.8-1.2 1.52-1.84 2.16-0.64 0.72-1.28 1.44-2 2.080s-1.52 1.28-2.24 1.84c-0.8 0.56-1.52 1.12-2.32 1.68-0.8 0.48-1.68 0.96-2.48 1.36-0.88 0.4-1.76 0.88-2.72 1.2-0.88 0.32-1.84 0.64-2.8 0.88-0.88 0.24-1.84 0.48-2.8 0.64-1.040 0.16-2.16 0.24-3.28 0.32-0.64 0-1.2 0.16-1.76 0.16h-95.28c-15.84 0-30.16-11.6-31.52-27.36-1.52-17.84 12.48-32.72 29.92-32.72h67.68c6.48 0 12.32-3.68 15.2-9.44l61.28-123.44c5.28-10.56 15.92-16.72 26.96-16.72 5.76 0 11.6 1.68 16.88 5.2 12.64 8.48 16.24 25.68 9.44 39.36l-73.68 148.4z" />
<glyph unicode="&#xe966;" glyph-name="svg_web-icon_p2_003-heart_rate" data-tags="svg_web-icon_p2_003-heart_rate" d="M677.52 624.8c-121.92 0-165.52-87.12-165.52-87.12s-43.52 87.12-165.52 87.12-197.92-91.52-174.16-225.84c22.72-128.64 313.52-383.84 339.68-383.84s316.96 255.2 339.68 383.84c23.68 134.32-52.24 225.84-174.16 225.84z" />
<glyph unicode="&#xe967;" glyph-name="svg_web-icon_p2_004-fit_time" data-tags="svg_web-icon_p2_004-fit_time" d="M677.52 624.8c-121.92 0-165.52-87.12-165.52-87.12s-43.52 87.12-165.52 87.12-197.92-91.52-174.16-225.84c22.72-128.64 313.52-383.84 339.68-383.84s316.96 255.2 339.68 383.84c23.68 134.32-52.24 225.84-174.16 225.84zM553.12 154.32c15.68 12.4 26.88 34.24 26.88 67.28 0 56-64 120-64 120s8-64-24-88c0 16-16 24-16 48-24-32-32-64-32-96 0-16.88 6.72-33.68 20.080-45.84-49.12 18.64-81.68 60.24-87.6 101.84-8 56 40 136 40 136s8-40 24-56c24 24 40 72 40 144 56-40 72-96 80-136 16 32 24 80 24 80s64-72 64-144c0-60.64-39.76-115.44-95.36-131.28z" />
<glyph unicode="&#xe968;" glyph-name="svg_web-icon_p2_005-rest_heart_rate" data-tags="svg_web-icon_p2_005-rest_heart_rate" d="M677.52 624.8c-121.92 0-165.52-87.12-165.52-87.12s-43.52 87.12-165.52 87.12-197.92-91.52-174.16-225.84c22.72-128.64 313.52-383.84 339.68-383.84s316.96 255.2 339.68 383.84c23.68 134.32-52.24 225.84-174.16 225.84zM632.88 284.32c-24.24-39.2-68.56-64.72-118.64-62.16-66.56 3.44-120.64 57.52-124.080 124.080-2.56 50.080 22.96 94.4 62.16 118.64 5.84 3.6 12.88-2 10.72-8.48-5.6-16.64-7.84-34.72-5.92-53.68 6.080-59.6 54-107.52 113.52-113.52 18.88-1.92 37.040 0.32 53.68 5.92 6.48 2.16 12.080-4.88 8.48-10.72z" />
<glyph unicode="&#xe969;" glyph-name="svg_web-icon_p2_006-avg_heart_rate" data-tags="svg_web-icon_p2_006-avg_heart_rate" d="M677.52 624.8c-121.92 0-165.52-87.12-165.52-87.12s-43.52 87.12-165.52 87.12-197.92-91.52-174.16-225.84c22.72-128.64 313.52-383.84 339.68-383.84s316.96 255.2 339.68 383.84c23.68 134.32-52.24 225.84-174.16 225.84zM631.36 362.32c0 3.36 2.72 6.080 6.080 6.080h22c3.36 0 6.080-2.72 6.080-6.080v-4.8c0-3.36-2.72-6.080-6.080-6.080h-22c-3.36 0-6.080 2.72-6.080 6.080v4.8zM557.44 362.32c0 3.36 2.72 6.080 6.080 6.080h33.36c3.36 0 6.080-2.72 6.080-6.080v-4.8c0-3.36-2.72-6.080-6.080-6.080h-33.36c-3.36 0-6.080 2.72-6.080 6.080v4.8zM318.88 357.52c0-3.36-2.72-6.080-6.080-6.080h-10.56c-3.36 0-6.080 2.72-6.080 6.080v4.8c0 3.36 2.72 6.080 6.080 6.080h10.56c3.36 0 6.080-2.72 6.080-6.080v-4.8zM392.8 357.52c0-3.36-2.72-6.080-6.080-6.080h-22c-3.36 0-6.080 2.72-6.080 6.080v4.8c0 3.36 2.72 6.080 6.080 6.080h22c3.36 0 6.080-2.72 6.080-6.080v-4.8zM466.72 357.52c0-3.36-2.72-6.080-6.080-6.080h-33.36c-3.36 0-6.080 2.72-6.080 6.080v4.8c0 3.36 2.72 6.080 6.080 6.080h33.36c3.36 0 6.080-2.72 6.080-6.080v-4.8zM697.36 354.48c-3.6-18.48-37.6-180.8-109.68-180.8-39.12 0-56.4 67.44-81.52 177.6 0 0 0 0.080 0 0.16h-10.72c-3.36 0-6.080 2.72-6.080 6.080v4.8c0 3.36 2.72 6.080 6.080 6.080h6.8c-15.36 66.72-37.040 153.28-61.040 153.28-49.040 0-83.6-119.28-91.84-161.12-1.28-6.64-7.76-10.88-14.32-9.6-6.64 1.28-10.96 7.68-9.6 14.32 3.6 18.48 37.76 180.8 115.76 180.8 45.68 0 65.68-87.76 88.8-189.44 14.4-63.12 36.16-158.56 57.68-158.56 39.36 0 73.44 98.8 85.68 161.12 1.28 6.64 7.76 10.88 14.32 9.6 6.64-1.28 10.96-7.68 9.6-14.32zM728.080 357.52c0-3.36-2.72-6.080-6.080-6.080h-10.56c-3.36 0-6.080 2.72-6.080 6.080v4.8c0 3.36 2.72 6.080 6.080 6.080h10.56c3.36 0 6.080-2.72 6.080-6.080v-4.8z" />
<glyph unicode="&#xe96a;" glyph-name="svg_web-icon_p2_007-max_heart_rate" data-tags="svg_web-icon_p2_007-max_heart_rate" d="M677.52 624.8c-121.92 0-165.52-87.12-165.52-87.12s-43.52 87.12-165.52 87.12-197.92-91.52-174.16-225.84c22.72-128.64 313.52-383.84 339.68-383.84s316.96 255.2 339.68 383.84c23.68 134.32-52.24 225.84-174.16 225.84zM668.8 473.52h-156.8l103.6-253.68c4.88-11.84-8.080-23.12-19.2-16.72l-77.68 45.12c-4.16 2.4-9.36 2.4-13.52 0l-77.68-45.12c-11.12-6.4-24 4.8-19.2 16.72l103.68 253.68h-156.8c-8.080 0-14.56 6.56-14.56 14.56s6.56 14.56 14.56 14.56h313.52c8.080 0 14.56-6.56 14.56-14.56s-6.56-14.56-14.56-14.56z" />
<glyph unicode="&#xe96b;" glyph-name="svg_web-icon_p2_008-mini_heart_rate" data-tags="svg_web-icon_p2_008-mini_heart_rate" d="M677.52 624.8c-121.92 0-165.52-87.12-165.52-87.12s-43.52 87.12-165.52 87.12-197.92-91.52-174.16-225.84c22.72-128.64 313.52-383.84 339.68-383.84s316.96 255.2 339.68 383.84c23.68 134.32-52.24 225.84-174.16 225.84zM668.8 209.28h-313.52c-8.080 0-14.56 6.56-14.56 14.56s6.56 14.56 14.56 14.56h156.8l-103.6 253.68c-4.88 11.84 8.080 23.12 19.2 16.72l77.68-45.12c4.16-2.4 9.36-2.4 13.52 0l77.68 45.12c11.12 6.4 24-4.8 19.2-16.72l-103.68-253.68h156.8c8.080 0 14.56-6.56 14.56-14.56s-6.56-14.56-14.56-14.56z" />
<glyph unicode="&#xe96c;" glyph-name="svg_web-icon_p2_009-step" data-tags="svg_web-icon_p2_009-step" d="M287.6 708.64c11.12-3.68 22.8-6.080 33.2-11.2 20.72-10.32 35.28-27.52 47.36-46.96 19.6-31.44 29.68-66.32 37.68-102.16 10-44.8 9.28-89.92 4.96-135.2-2.56-26.64-7.76-52.56-16-78.080-4.24-13.2-12.24-18.72-30.88-19.52-26.56-1.12-52.96-5.52-77.84-14.8-31.44-11.76-36.24-18.24-43.6-11.6-10.72 9.76-17.92 21.92-24.24 34.56-18.8 37.52-30.4 77.52-38.72 118.4-5.44 26.64-10.48 53.84-11.2 80.88-0.96 38.4 2.48 76.88 14.64 113.92 6.72 20.24 16.8 38.48 33.6 52.4 12.32 10.16 26.64 15.28 42.080 18.16 1.92 0.32 3.76 0.88 5.6 1.36h23.2zM653.2-69.040c-12.72 3.76-25.36 7.6-35.6 16.8-21.36 19.2-29.12 43.76-29.2 71.52-0.16 34.8 12.24 65.84 28.96 95.52 0.56 0.96 1.2 1.76 1.76 2.72 9.52 15.92 9.36 15.36 26.8 10 37.28-11.52 74.72-22.56 112.24-33.44 5.92-1.68 7.6-3.84 6.96-10.16-2.72-25.28-7.2-50.16-16.32-74-10.4-27.040-24.56-51.68-50.4-67.040-8.32-4.96-18-7.52-27.12-11.12l-18.080-0.8zM855.44 409.52c1.52-26.8-3.44-52.88-8.080-78.96-7.44-41.6-19.12-82.32-35.76-121.12-7.2-16.72-15.52-33.040-28.56-46.24-6.24-6.4-12.16-5.68-27.2 2.48-27.68 15.040-58.72 22.56-90.24 21.92-22.24-0.4-32 4.8-36.88 19.6-16.56 50.16-20.32 101.84-18.64 154 1.6 47.68 12.8 93.52 32.16 137.12 9.92 22.32 23.44 42.32 41.92 58.8 23.84 21.28 51.68 26.72 82.24 21.92 33.040-5.2 54.4-25.12 67.92-54.8 10.4-22.8 14.88-46.96 17.44-71.6 1.52-14.32 2.48-28.64 3.76-42.96zM358.4 249.36c22.32 6.72 46.72-3.2 56.96-24.080 0-0.16 0.16-0.24 0.16-0.4 12-24.72 19.92-50.64 19.52-78.56-0.32-25.12-6.96-47.76-24.64-66.48-19.76-20.88-51.6-26.4-77.36-13.76-23.84 11.68-39.36 31.040-50.8 54.080-12.96 26.24-21.12 53.52-24.8 82.080-1.040 7.84 3.44 15.36 10.96 17.92 21.36 7.2 65.12 21.76 90 29.2z" />
<glyph unicode="&#xe96d;" glyph-name="svg_web-icon_p2_010-calorie" data-tags="svg_web-icon_p2_010-calorie" d="M681.84 552.080c-6.32-29.68-17.52-76.32-33.76-120-5.12-13.76-24.88-12.88-28.48 1.36-21.2 84.64-61.68 186.56-160.16 267.12-9.68 7.92-24.16 1.28-24.48-11.2-3.84-146.8-36.48-249.2-84.96-307.12-6.16-7.36-17.76-6.88-23.28 0.96-17.44 24.64-29.92 59.84-37.6 86.080-3.76 12.88-21.36 14.56-27.52 2.64-32-61.44-93.2-195.36-78.72-296.8 12.080-84.64 69.36-169.2 157.76-220.96 12.64-7.44 27.6 5.84 21.2 19.040-10 20.72-14.96 43.36-14.96 66 0 67.12 14.48 134.24 56 201.36 6.72 10.88 23.12 8.96 26.96-3.28 7.52-23.68 21.28-39.76 28.64-57.84 4.24-10.4 18.24-12.64 25.2-3.92 34.32 43.12 40.32 110 40.16 152.88 0 13.84 17.12 20.4 26.16 9.84 44.8-52.16 127.040-161.36 127.040-260.24 0-50.16-10.64-89.68-27.92-119.6-7.52-13.040 6.72-27.6 20-20.56 104.080 55.12 174.080 170.24 174.080 295.6 0 135.2-92.96 270.4-135.040 324.72-7.76 10-23.68 6.32-26.32-6.080z" />
<glyph unicode="&#xe96e;" glyph-name="svg_web-icon_p2_011-deep_sleep" data-tags="svg_web-icon_p2_011-deep_sleep" d="M833.28 192.24h-641.6c-0.56 0-1.040 0.48-1.040 1.040v188c0 16.8-13.6 30.48-30.48 30.48h-1.84c-16.8 0-30.48-13.6-30.48-30.48v-378c0-16.8 13.6-30.48 30.48-30.48h1.84c16.8 0 30.48 13.6 30.48 30.48v86.080c0 0.56 0.48 1.040 1.040 1.040h640.56c0.56 0 1.040-0.48 1.040-1.040v-85.2c0-10.4 4-20.64 12-27.28 20.88-17.28 50.72-0.56 50.72 22.32v154.48c0 21.28-17.28 38.56-38.56 38.56h-24.16zM364.48 290.72c0-35.567-28.833-64.4-64.4-64.4s-64.4 28.833-64.4 64.4c0 35.567 28.833 64.4 64.4 64.4s64.4-28.833 64.4-64.4zM817.6 255.6c0 54-43.76 97.84-97.84 97.84h-282.16c-15.2 0-27.6-12.32-27.6-27.6v-70.24c0-15.2 12.32-27.6 27.6-27.6h352.32c15.2 0 27.6 12.32 27.6 27.6v0zM400.48 544.88h71.68c7.040 0 11.76-7.2 8.96-13.6l-50.72-116.4h43.28c5.36 0 9.76-4.4 9.76-9.76v-9.6c0-5.36-4.4-9.76-9.76-9.76h-72.64c-7.040 0-11.76 7.2-8.96 13.68l50.48 115.52h-42c-5.36 0-9.76 4.4-9.76 9.76v10.48c0 5.36 4.4 9.76 9.76 9.76zM521.84 670.24h99.92c9.76 0 16.32-10 12.48-19.040l-70.72-162.24h60.24c7.52 0 13.6-6.080 13.6-13.6v-13.44c0-7.52-6.080-13.6-13.6-13.6h-101.28c-9.76 0-16.4 10.080-12.48 19.040l70.32 161.040h-58.56c-7.52 0-13.6 6.080-13.6 13.6v14.64c0 7.52 6.080 13.6 13.6 13.6z" />
<glyph unicode="&#xe96f;" glyph-name="svg_web-icon_p2_012-light_sleep" data-tags="svg_web-icon_p2_012-light_sleep" d="M393.36 364.48c-11.36 5.040-24.72-0.080-29.76-11.44l-26.48-60.080-91.52-19.68c-12.16-2.64-19.92-14.64-17.28-26.8s14.64-19.92 26.8-17.28l95.92 20.64c1.68 0.4 3.28 0.96 4.8 1.68 7.68 0.88 14.72 5.6 18.080 13.2l30.88 70.080c5.040 11.36-0.080 24.64-11.44 29.68zM833.28 192.24h-641.6c-0.56 0-1.040 0.48-1.040 1.040v188c0 16.8-13.6 30.48-30.48 30.48h-1.84c-16.8 0-30.48-13.6-30.48-30.48v-378c0-16.8 13.6-30.48 30.48-30.48h1.84c16.8 0 30.48 13.6 30.48 30.48v86.080c0 0.56 0.48 1.040 1.040 1.040h640.56c0.56 0 1.040-0.48 1.040-1.040v-85.2c0-10.4 4-20.64 12-27.28 20.88-17.28 50.72-0.56 50.72 22.32v154.48c0 21.28-17.28 38.56-38.56 38.56h-24.16zM364.48 394.72c0-35.567-28.833-64.4-64.4-64.4s-64.4 28.833-64.4 64.4c0 35.567 28.833 64.4 64.4 64.4s64.4-28.833 64.4-64.4zM825.6 255.6c0 54-43.76 97.84-97.84 97.84h-282.16c-15.2 0-27.6-12.32-27.6-27.6v-70.24c0-15.2 12.32-27.6 27.6-27.6h352.32c15.2 0 27.6 12.32 27.6 27.6v0zM508.080 408.4c15.040 3.6 26.96 10.72 38.56 17.52 14.24 8.4 26.56 15.76 42.56 15.76 36.48 0 65.76-24.64 77.68-40.16 2.24-2.88 6.16-3.84 9.36-2l0.64 0.4c3.76 2.16 4.64 7.12 2 10.56-14.080 18.4-47.28 46.16-89.68 46.16-20.080 0-35.36-9.040-50.16-17.84-10.64-6.32-21.6-12.8-34.4-15.84-17.12-4.080-52.24 6.16-65.28 24.32-2 2.72-5.6 3.68-8.64 2.32l-0.72-0.32c-4-1.84-5.52-6.88-2.96-10.48 17.12-24.080 58.96-35.76 81.12-30.48zM841.92 330.8l0.64 0.16c4.4 0.96 6.96 5.52 5.6 9.76-9.2 28.56-31.44 45.68-63.84 48.16-4.4 0.32-8.24-3.040-8.24-7.44v0c0-3.84 2.88-7.2 6.72-7.52 25.92-1.92 43.36-15.28 50.64-38.32 1.12-3.6 4.96-5.6 8.56-4.8z" />
</font>
</defs>
</svg>
